<svg width="50" height="50" viewBox="0 0 50 50" fill="none" xmlns="http://www.w3.org/2000/svg">
<g clip-path="url(#clip0_240_13251)">
<path d="M49.2327 16.8771C47.2156 14.9992 45.0801 13.7239 42.3792 13.3772C44.0433 11.2231 44.9963 8.60423 45.0953 5.84904L45.1329 4.80101L44.085 4.83878C41.3298 4.93784 38.711 5.89091 36.5569 7.55474C36.2103 4.85391 34.9349 2.81601 33.057 0.798902L32.3428 0.0317383L31.6285 0.798902C29.3646 3.23068 28.2152 5.91199 28.2152 9.23487C28.2152 9.89293 28.2658 10.5538 28.3643 11.2051C29.7923 11.3821 31.1809 12.0163 32.2934 13.1287L36.8058 17.6409C37.9181 18.7532 38.5523 20.1418 38.7292 21.5699C39.3809 21.6684 40.0417 21.7189 40.6993 21.7189C44.022 21.7189 46.8008 20.5697 49.2327 18.3057L50 17.5914L49.2327 16.8771Z" fill="#FFD600"/>
<path d="M37.4959 16.9508L32.9835 12.4386C29.6071 9.06236 23.9963 9.52778 21.2277 13.4315L0.906238 42.0844C-0.488826 44.0798 -0.251777 46.7775 1.46973 48.499C3.19016 50.2192 5.89012 50.4613 7.896 49.0545C8.75315 48.4448 35.8308 29.1846 36.5119 28.7C40.399 25.9349 40.8765 20.3316 37.4959 16.9508ZM35.3806 27.1096L29.2846 31.4457L24.2416 26.4027C23.8604 26.0217 23.2427 26.0217 22.8614 26.4027C22.4803 26.7838 22.4803 27.4018 22.8614 27.783L27.6715 32.593L17.9475 39.5097L14.5411 36.1033C14.1601 35.7224 13.5423 35.7222 13.1608 36.1033C12.7798 36.4844 12.7798 37.1023 13.1608 37.4835L16.3344 40.6572L6.7699 47.4604C5.55089 48.3151 3.90238 48.1716 2.84976 47.119C1.79871 46.068 1.65398 44.4211 2.50185 43.2084L5.275 39.2983L7.61767 41.641C7.99896 42.0221 8.61662 42.022 8.9979 41.641C9.379 41.2599 9.379 40.642 8.9979 40.2608L6.42043 37.6833L13.3253 27.9476L17.3182 31.9404C17.6995 32.3215 18.3172 32.3214 18.6985 31.9404C19.0795 31.5593 19.0795 30.9414 18.6985 30.5602L14.4707 26.3326L21.3756 16.5968L27.0186 22.2399C27.3999 22.6211 28.0175 22.6209 28.3987 22.2399C28.7798 21.8588 28.7798 21.2409 28.3987 20.8597L22.5209 14.9818L22.8195 14.5606C24.8863 11.6463 29.0787 11.2945 31.603 13.8188L36.1153 18.331C38.6359 20.8512 38.2913 25.0388 35.3806 27.1096Z" fill="#31688F"/>
</g>
<defs>
<clipPath id="clip0_240_13251">
<rect width="50" height="50" fill="white"/>
</clipPath>
</defs>
</svg>
