<svg width="50" height="50" viewBox="0 0 50 50" fill="none" xmlns="http://www.w3.org/2000/svg">
<g clip-path="url(#clip0_240_13272)">
<path d="M17.0629 22.3974C19.9316 20.8705 20.7099 16.7257 18.8012 13.1398C16.8925 9.55385 13.0196 7.88474 10.1509 9.4117C7.28215 10.9387 6.50388 15.0835 8.41258 18.6694C10.3213 22.2553 14.1942 23.9244 17.0629 22.3974Z" fill="#FFD600"/>
<path d="M24.0864 31.2487C24.3762 30.53 24.6163 29.7958 24.8065 29.0521C23.4297 28.6188 21.9739 28.6687 20.7325 29.3288C17.8637 30.8544 17.0833 34.9976 18.9902 38.583C20.3629 41.1635 22.7864 42.7521 25.0881 42.8702C22.8352 39.2376 22.6128 34.9022 24.0864 31.2487Z" fill="#FFD600"/>
<path d="M48.9312 30.7344C47.4144 27.0964 47.4361 22.9679 48.9924 19.1091C50.9777 14.1868 50.0449 8.29632 46.0114 4.18042C39.5527 -2.40998 28.6354 -0.999412 24.0279 6.96035C19.8415 2.54439 13.2089 1.3295 7.73586 4.04772C0.699522 7.54377 -2.04448 16.1219 1.63437 23.041C2.50487 24.6777 3.66625 26.0981 5.08609 27.263C8.13328 29.7625 10.0522 33.418 10.4894 37.5567C11.5095 47.1617 21.7052 52.6718 30.2117 48.6912C35.1412 51.001 41.4113 50.3092 45.785 46.055C50.0355 41.9204 51.0458 35.805 48.9312 30.7344ZM36.0971 48.04C36.0914 48.04 36.0857 48.0402 36.0799 48.0402C35.6688 48.0281 34.3755 46.886 33.2265 41.7676C31.1509 32.5211 31.1503 17.4741 33.2265 8.22523C34.3817 3.07928 35.6828 1.95237 36.0867 1.95237C36.4906 1.95237 37.7917 3.07928 38.947 8.22523C41.0226 17.4718 41.0232 32.5187 38.947 41.7676C37.8013 46.8704 36.5125 48.021 36.0971 48.04ZM33.1809 2.30526C28.5606 10.7554 28.5897 39.259 33.1739 47.675C26.3668 45.9314 22.2233 38.4792 24.9919 31.6141C26.7414 27.2763 26.7601 22.6214 25.0444 18.5068C22.2474 11.7977 26.0763 4.0693 33.1809 2.30526ZM12.4315 37.351C11.94 32.6991 9.77126 28.5803 6.32471 25.7533C5.10523 24.7529 4.10731 23.5318 3.35857 22.1242C0.200462 16.184 2.54666 8.80661 8.6046 5.79663C13.5806 3.32515 19.5902 4.62616 23.1128 8.86803C21.8564 12.1055 21.8279 15.8665 23.2421 19.2584C24.759 22.8964 24.7372 27.025 23.1808 30.8838C21.1957 35.8064 22.1282 41.6963 26.1619 45.8124C26.7548 46.4174 27.3941 46.9611 28.071 47.4418C21.0208 49.7446 13.2483 45.0433 12.4315 37.351ZM38.9923 47.6878C43.6341 39.1921 43.5616 10.6986 38.9993 2.31776C45.8064 4.06129 49.9501 11.5137 47.1812 18.3788C45.4318 22.7164 45.4132 27.3713 47.1288 31.4859C47.7363 32.9428 48.0443 34.4894 48.0443 36.0826C48.0443 41.7948 44.0839 46.4242 38.9923 47.6878Z" fill="#31688F"/>
</g>
<defs>
<clipPath id="clip0_240_13272">
<rect width="50" height="50" fill="white"/>
</clipPath>
</defs>
</svg>
