<svg width="50" height="50" viewBox="0 0 50 50" fill="none" xmlns="http://www.w3.org/2000/svg">
<g clip-path="url(#clip0_240_13262)">
<path d="M18.2617 18.7156V40.112H9.58965V18.7156H18.2617Z" fill="#FFD600"/>
<path d="M22.5586 13.4422H22.3858V11.4802C22.3858 10.4496 21.5475 9.61115 20.5168 9.61115H18.8529C18.2951 8.89298 17.7264 7.95275 17.123 6.75255C16.1902 4.89728 15.4328 2.87277 14.8719 0.735074C14.8714 0.733023 14.8691 0.724918 14.8687 0.722867C14.7535 0.295425 14.3655 -0.00184023 13.9218 0.0032379C13.479 0.00470274 13.0918 0.306754 12.9795 0.735074C12.4185 2.87277 11.6611 4.89738 10.7284 6.75255C10.1249 7.95285 9.55606 8.89318 8.99834 9.61115H7.33448C6.30391 9.61115 5.46543 10.4495 5.46543 11.4802V13.4422H5.29268C4.75332 13.4422 4.31612 13.8794 4.31612 14.4188V49.0236C4.31612 49.563 4.75332 50.0002 5.29268 50.0002H22.5586C23.098 50.0002 23.5352 49.563 23.5352 49.0236V14.4188C23.5352 13.8794 23.098 13.4422 22.5586 13.4422ZM12.4734 7.6299C13.0143 6.55421 13.4994 5.42619 13.9257 4.25461C14.3517 5.4255 14.837 6.55382 15.378 7.6299C15.7518 8.37316 16.1177 9.03107 16.4808 9.61125H11.3708C11.7337 9.03117 12.0996 8.37316 12.4734 7.6299ZM7.41866 11.5644H20.4327V13.4422H7.41866V11.5644ZM21.582 48.0471H6.26934V15.3953H21.582V48.0471Z" fill="#31688F"/>
<path d="M18.2617 43.4177H9.58965C9.05029 43.4177 8.61308 43.8549 8.61308 44.3943C8.61308 44.9336 9.05029 45.3708 9.58965 45.3708H18.2617C18.8011 45.3708 19.2383 44.9336 19.2383 44.3943C19.2383 43.8549 18.801 43.4177 18.2617 43.4177Z" fill="#31688F"/>
<path d="M44.7072 13.4421H44.5345V11.4801C44.5345 10.4495 43.6961 9.61104 42.6654 9.61104H41.0016C40.4438 8.89297 39.875 7.95273 39.2716 6.75244C38.3389 4.89717 37.5814 2.87266 37.0191 0.729492C36.9071 0.301074 36.5207 0.0015625 36.0778 0H36.0742C35.6328 0 35.2461 0.296191 35.1312 0.722656C35.1308 0.724707 35.1285 0.732813 35.128 0.734863C34.567 2.87256 33.8097 4.89717 32.877 6.75234C32.2735 7.95254 31.7048 8.89287 31.147 9.61094H29.4831C28.4525 9.61094 27.6141 10.4493 27.6141 11.48V13.442H27.4414C26.9021 13.442 26.4648 13.8792 26.4648 14.4186V49.0235C26.4648 49.5629 26.9021 50.0001 27.4414 50.0001H44.7072C45.2466 50.0001 45.6838 49.5629 45.6838 49.0235V14.4187C45.6838 13.8793 45.2466 13.4421 44.7072 13.4421ZM34.6221 7.62979C35.1631 6.55371 35.6483 5.42549 36.0744 4.25459C36.5004 5.42549 36.9857 6.55361 37.5268 7.62979C37.9005 8.37305 38.2664 9.03096 38.6295 9.61104H33.5195C33.8824 9.03096 34.2483 8.37305 34.6221 7.62979ZM29.5673 11.5643H42.5813V13.4421H29.5673V11.5643ZM43.7307 48.047H28.418V15.3952H43.7307V48.047Z" fill="#31688F"/>
<path d="M40.4104 17.739H31.7383C31.1989 17.739 30.7617 18.1762 30.7617 18.7156V40.112C30.7617 40.6513 31.1989 41.0885 31.7383 41.0885H40.4104C40.9497 41.0885 41.3869 40.6513 41.3869 40.112V18.7156C41.3869 18.1762 40.9497 17.739 40.4104 17.739ZM39.4338 39.1354H32.7148V19.6921H39.4338V39.1354Z" fill="#31688F"/>
<path d="M40.4104 43.4177H31.7383C31.1989 43.4177 30.7617 43.8549 30.7617 44.3943C30.7617 44.9336 31.1989 45.3708 31.7383 45.3708H40.4104C40.9497 45.3708 41.3869 44.9336 41.3869 44.3943C41.3869 43.8549 40.9497 43.4177 40.4104 43.4177Z" fill="#31688F"/>
</g>
<defs>
<clipPath id="clip0_240_13262">
<rect width="50" height="50" fill="white"/>
</clipPath>
</defs>
</svg>
