<svg width="39" height="45" viewBox="0 0 39 45" fill="none" xmlns="http://www.w3.org/2000/svg">
<path fill-rule="evenodd" clip-rule="evenodd" d="M21.8144 37.5418C23.7612 37.6012 25.792 37.1818 27.3726 36.5808C28.3901 36.2166 29.9773 35.2573 30.7714 34.539C31.3935 33.9748 32.2855 33.0891 32.7266 32.3524C33.4666 31.111 33.744 30.7619 34.2823 29.1856L34.803 27.3439C35.6627 27.2485 36.8438 27.5013 37.8231 27.6997C37.0024 25.0744 35.1652 24.9598 34.9642 24.9681C35.1477 23.4086 35.308 22.2617 33.7515 20.9072C33.5804 21.4095 32.9724 23.2964 32.7307 23.6354C32.2864 23.4395 29.2373 22.5187 25.802 23.504C22.7164 24.3194 20.7819 25.9317 18.86 28.2472C18.3865 28.8164 17.7387 30.0361 17.4596 30.7393C17.0759 31.7095 16.7777 32.7191 16.6896 33.8777C16.6614 34.2577 16.5925 35.4238 16.6896 35.7436C16.9903 36.7256 20.963 37.5158 21.8144 37.5418ZM18.8334 34.6118C18.6158 32.6379 20.0502 30.0595 21.321 28.6875C23.4141 26.0924 29.5097 24.1896 32.6277 26.1719C33.0073 29.1856 29.8038 33.0112 27.1824 34.3573C24.3186 36.0802 20.3127 35.243 18.8334 34.611V34.6118Z" fill="#0DB9BB"/>
<path fill-rule="evenodd" clip-rule="evenodd" d="M25.0638 41.763C28.3862 40.8497 31.0141 39.784 33.3331 37.6611C35.4503 35.724 37.5974 32.0448 38.2502 29.2622L35.7875 28.7139C35.187 31.5785 32.8688 34.7546 30.4967 36.4707C25.9608 39.7505 20.685 40.4094 15.2139 38.6606C12.262 37.7172 9.53602 35.58 7.83 33.1356C6.39641 31.0779 5.98112 29.248 5.69373 28.8269L3.42291 29.4179C5.3615 35.071 8.55593 38.7276 14.1541 40.8731C14.7355 41.0966 16.0594 41.5487 16.5678 41.655C16.8169 42.6403 16.7164 43.4858 17.4814 44.3782C18.0479 45.0362 19.5379 44.9868 20.6376 44.996C21.7373 45.0052 23.1468 45.0328 23.9799 44.667C24.7839 44.1915 24.8603 42.6822 25.0638 41.763Z" fill="#0DB9BB"/>
<path fill-rule="evenodd" clip-rule="evenodd" d="M17.2362 21.0215C16.8458 19.071 15.0966 17.632 12.5932 18.1326C12.4595 17.9208 12.2834 17.0259 12.0508 16.6091C10.5475 13.9085 7.18859 13.2991 5.28406 15.6221C4.48753 16.5931 4.39284 18.2038 4.51245 19.4101C3.98502 19.3515 3.12371 19.4854 2.41106 19.7273C0.725807 20.2899 -0.451133 22.4514 0.166823 24.5592C1.01236 27.4942 4.2641 28.153 6.4909 27.1133C6.47512 29.4849 8.42201 31.6338 10.9503 31.299C12.3698 31.1139 13.8109 29.9914 14.0708 28.9684C14.3549 28.1313 14.1157 26.6989 13.5941 25.7873C16.3906 25.7538 17.7661 23.6719 17.2362 21.0215ZM10.6463 18.501C10.7244 18.5889 10.4802 21.2225 10.4877 21.4778C10.7194 21.4142 11.3598 20.9563 11.6937 20.7645C15.2079 18.7688 15.9156 21.8603 15.443 22.6682C14.8615 23.9088 12.2925 23.8343 10.7402 23.9816C10.8556 24.4923 13.8133 28.6285 10.8133 29.2019C7.36634 29.8616 8.1828 25.4968 8.20606 24.4454C6.31731 25.4265 3.49581 26.7893 2.35375 24.134C1.40107 20.1534 6.64539 21.3949 7.55903 21.9332C6.60718 20.7085 6.28907 19.6353 6.39621 17.9736C6.53907 15.8816 10.5043 15.4312 10.6463 18.501Z" fill="#31688F"/>
<path fill-rule="evenodd" clip-rule="evenodd" d="M22.0791 27.2149C21.83 27.0944 21.6971 26.6608 21.8158 26.4063C21.9346 26.1518 22.3698 25.9434 22.7428 26.1208C24.2448 26.8182 25.5401 27.8989 26.5003 29.2559C27.517 30.6589 28.1515 31.9891 28.5286 34.169C28.6192 34.7717 28.2869 35.0421 28.012 35.0898C27.7371 35.1375 27.2171 35.0379 27.12 34.5499C26.7711 32.5282 26.4181 31.3227 25.4937 30.0469C24.6181 28.8208 23.4415 27.8449 22.0791 27.2149Z" fill="#FFD600"/>
<path fill-rule="evenodd" clip-rule="evenodd" d="M24.6692 26.1836C24.42 26.0639 24.2456 25.7332 24.4275 25.313C24.7498 24.8542 25.1352 24.9497 25.3868 25.0702C27.8379 26.2422 30.5165 29.7908 30.9767 32.4553C31.0232 32.7324 30.9767 33.1636 30.5614 33.3327C30.122 33.4691 29.6303 33.1251 29.583 32.848C29.2723 31.049 28.4102 29.774 27.5896 28.6406C26.7689 27.5071 25.9151 26.7788 24.6692 26.1836Z" fill="#FFD600"/>
<path fill-rule="evenodd" clip-rule="evenodd" d="M27.7563 25.489C27.6943 25.4526 27.6401 25.4041 27.5968 25.3463C27.5536 25.2885 27.5222 25.2227 27.5045 25.1525C27.4868 25.0824 27.4831 25.0094 27.4937 24.9378C27.5043 24.8663 27.5289 24.7975 27.5661 24.7356C27.7995 24.4008 28.1475 24.4619 28.4025 24.5816C30.1833 25.4321 32.1061 28.0398 32.4408 29.9777C32.5638 30.3963 32.3528 30.7136 32.0779 30.7604C31.8029 30.8073 31.4533 30.6265 31.4068 30.3494C31.1717 28.9874 29.0155 26.0909 27.7563 25.489Z" fill="#FFD600"/>
<path fill-rule="evenodd" clip-rule="evenodd" d="M15.5642 14.5168C12.5608 14.1593 10.3888 16.2044 9.62549 17.702C8.90952 19.1067 8.50752 20.7843 8.47513 22.7834C8.4727 22.9672 8.54284 23.1445 8.6701 23.2762C8.79736 23.4079 8.97132 23.4833 9.15372 23.4858C9.33611 23.4882 9.512 23.4175 9.64269 23.2892C9.77337 23.161 9.84815 22.9857 9.85058 22.8018C9.88629 20.5667 10.53 17.7849 12.3423 16.1475C13.158 15.415 14.2037 14.9429 15.5642 14.5168Z" fill="#FFD600"/>
<path d="M21.415 32.9177C21.7673 32.9177 22.0529 32.6298 22.0529 32.2747C22.0529 31.9197 21.7673 31.6318 21.415 31.6318C21.0627 31.6318 20.7771 31.9197 20.7771 32.2747C20.7771 32.6298 21.0627 32.9177 21.415 32.9177Z" fill="#0DB9BB"/>
<path d="M12.2229 14.6285C12.3761 14.6285 12.5003 14.5034 12.5003 14.3489C12.5003 14.1945 12.3761 14.0693 12.2229 14.0693C12.0697 14.0693 11.9454 14.1945 11.9454 14.3489C11.9454 14.5034 12.0697 14.6285 12.2229 14.6285Z" fill="#31688F"/>
<path fill-rule="evenodd" clip-rule="evenodd" d="M13.6223 13.5322C13.6772 13.5322 13.7308 13.5486 13.7765 13.5793C13.8221 13.6101 13.8576 13.6537 13.8786 13.7048C13.8996 13.7559 13.9051 13.8121 13.8944 13.8664C13.8837 13.9206 13.8573 13.9704 13.8185 14.0095C13.7797 14.0486 13.7303 14.0753 13.6764 14.0861C13.6226 14.0968 13.5668 14.0913 13.5161 14.0701C13.4655 14.049 13.4221 14.0131 13.3916 13.9672C13.3612 13.9212 13.3449 13.8671 13.3449 13.8118C13.3451 13.7377 13.3744 13.6668 13.4264 13.6144C13.4784 13.562 13.5488 13.5324 13.6223 13.5322Z" fill="#31688F"/>
<path fill-rule="evenodd" clip-rule="evenodd" d="M15.2637 13.4004C15.3186 13.4004 15.3722 13.4168 15.4178 13.4475C15.4634 13.4782 15.499 13.5219 15.52 13.573C15.541 13.6241 15.5465 13.6803 15.5358 13.7345C15.5251 13.7888 15.4987 13.8386 15.4599 13.8777C15.4211 13.9168 15.3716 13.9434 15.3178 13.9542C15.264 13.965 15.2082 13.9595 15.1575 13.9383C15.1068 13.9171 15.0635 13.8813 15.033 13.8353C15.0025 13.7893 14.9862 13.7353 14.9862 13.68C14.9861 13.6432 14.9932 13.6068 15.0071 13.5729C15.021 13.5389 15.0415 13.508 15.0673 13.482C15.093 13.4561 15.1237 13.4355 15.1574 13.4215C15.1911 13.4074 15.2272 13.4003 15.2637 13.4004Z" fill="#31688F"/>
<path fill-rule="evenodd" clip-rule="evenodd" d="M16.791 14.0352C16.8459 14.0352 16.8996 14.0516 16.9452 14.0823C16.9909 14.1131 17.0264 14.1568 17.0474 14.208C17.0684 14.2591 17.0738 14.3154 17.063 14.3696C17.0523 14.4239 17.0258 14.4737 16.9869 14.5128C16.948 14.5518 16.8985 14.5784 16.8446 14.5891C16.7907 14.5998 16.7349 14.5941 16.6842 14.5728C16.6336 14.5515 16.5903 14.5156 16.5599 14.4695C16.5295 14.4234 16.5134 14.3693 16.5136 14.3139C16.5138 14.2399 16.5431 14.169 16.5951 14.1168C16.6471 14.0645 16.7176 14.0352 16.791 14.0352Z" fill="#31688F"/>
<path d="M16.0361 15.4C16.0948 15.2574 16.0275 15.0938 15.886 15.0347C15.7444 14.9756 15.5821 15.0433 15.5235 15.186C15.4649 15.3287 15.5321 15.4922 15.6736 15.5513C15.8152 15.6104 15.9775 15.5427 16.0361 15.4Z" fill="#31688F"/>
<path fill-rule="evenodd" clip-rule="evenodd" d="M14.4744 15.5469C14.5293 15.5469 14.583 15.5633 14.6286 15.5941C14.6743 15.6248 14.7098 15.6685 14.7308 15.7197C14.7518 15.7708 14.7572 15.8271 14.7465 15.8813C14.7357 15.9356 14.7092 15.9854 14.6703 16.0245C14.6314 16.0635 14.5819 16.0901 14.528 16.1008C14.4741 16.1115 14.4183 16.1058 14.3677 16.0846C14.317 16.0633 14.2737 16.0273 14.2433 15.9812C14.2129 15.9351 14.1968 15.881 14.197 15.8256C14.197 15.789 14.2041 15.7526 14.2181 15.7188C14.2321 15.6849 14.2525 15.6541 14.2783 15.6282C14.304 15.6023 14.3346 15.5818 14.3683 15.5679C14.402 15.5539 14.438 15.5468 14.4744 15.5469Z" fill="#31688F"/>
<path fill-rule="evenodd" clip-rule="evenodd" d="M13.3415 16.1855C13.3964 16.1855 13.45 16.2019 13.4956 16.2327C13.5413 16.2634 13.5768 16.3071 13.5978 16.3582C13.6188 16.4092 13.6243 16.4655 13.6136 16.5197C13.6029 16.5739 13.5765 16.6238 13.5377 16.6629C13.4989 16.702 13.4494 16.7286 13.3956 16.7394C13.3418 16.7502 13.286 16.7446 13.2353 16.7235C13.1846 16.7023 13.1413 16.6665 13.1108 16.6205C13.0803 16.5745 13.0641 16.5204 13.0641 16.4651C13.0639 16.4284 13.071 16.392 13.085 16.358C13.0989 16.324 13.1193 16.2932 13.1451 16.2672C13.1709 16.2412 13.2015 16.2206 13.2352 16.2066C13.2689 16.1926 13.305 16.1854 13.3415 16.1855Z" fill="#31688F"/>
<path fill-rule="evenodd" clip-rule="evenodd" d="M14.1647 36.6356L24.9947 5.59826L23.5586 5.06836L13.874 36.541L14.1647 36.6356Z" fill="#FFD600"/>
<path fill-rule="evenodd" clip-rule="evenodd" d="M11.8947 34.93L31.4326 10.1887L30.4226 9.28125L11.6497 34.6964L11.8947 34.93Z" fill="#FFD600"/>
<path fill-rule="evenodd" clip-rule="evenodd" d="M25.2688 0L26.7921 0.484696L25.5055 4.15633L24.0645 3.63815L25.2688 0Z" fill="#31688F"/>
<path fill-rule="evenodd" clip-rule="evenodd" d="M35.0737 5.6163L33.832 4.60254L31.5022 7.70995L32.6883 8.67349L35.0737 5.6163Z" fill="#31688F"/>
</svg>
