<svg width="236" height="70" viewBox="0 0 236 70" fill="none" xmlns="http://www.w3.org/2000/svg">
<path fill-rule="evenodd" clip-rule="evenodd" d="M34.1053 57.5465C37.1142 57.6376 40.2527 56.9947 42.6954 56.0734C44.2679 55.5152 46.7209 54.0446 47.9481 52.9436C48.9095 52.0787 50.2882 50.7211 50.9698 49.5919C52.1135 47.6889 52.5422 47.1538 53.374 44.7375L54.1789 41.9144C55.5074 41.7682 57.3328 42.1557 58.8462 42.4598C57.5779 38.4357 54.7385 38.2599 54.4279 38.2727C54.7116 35.8821 54.9593 34.1241 52.5538 32.0479C52.2894 32.8178 51.3497 35.7101 50.9762 36.2298C50.2894 35.9296 45.5772 34.518 40.2681 36.0284C35.4994 37.2782 32.5098 39.7497 29.5394 43.299C28.8077 44.1716 27.8065 46.0412 27.3752 47.1191C26.7822 48.6064 26.3213 50.1539 26.1853 51.9299C26.1416 52.5125 26.0351 54.3 26.1853 54.7902C26.6499 56.2954 32.7896 57.5067 34.1053 57.5465ZM29.4983 53.0553C29.162 50.0295 31.3789 46.0772 33.3428 43.974C36.5776 39.996 45.9982 37.0793 50.817 40.118C51.4036 44.7375 46.4527 50.6018 42.4015 52.6652C37.9755 55.306 31.7845 54.0228 29.4983 53.054V53.0553Z" fill="#0DB9BB"/>
<path fill-rule="evenodd" clip-rule="evenodd" d="M39.1269 64.0163C44.2615 62.6163 48.3229 60.9828 51.9069 57.7286C55.1789 54.7593 58.4971 49.1196 59.506 44.8542L55.7 44.0137C54.7719 48.4048 51.1893 53.2733 47.5232 55.9039C40.5133 60.9315 32.3596 61.9414 23.9043 59.2608C19.3422 57.8146 15.1293 54.5385 12.4927 50.7916C10.2772 47.6375 9.63534 44.8324 9.1912 44.1869L5.68173 45.0929C8.67775 53.7584 13.6146 59.3634 22.2663 62.6523C23.1649 62.9949 25.211 63.6878 25.9966 63.8508C26.3817 65.3611 26.2264 66.6572 27.4086 68.0251C28.2841 69.0337 30.5869 68.958 32.2864 68.9721C33.986 68.9862 36.1643 69.0285 37.4518 68.4678C38.6944 67.7389 38.8125 65.4253 39.1269 64.0163Z" fill="#0DB9BB"/>
<path fill-rule="evenodd" clip-rule="evenodd" d="M27.0299 32.2224C26.4266 29.2325 23.7233 27.0267 19.8544 27.794C19.6477 27.4694 19.3756 26.0976 19.0162 25.4586C16.6928 21.319 11.5017 20.3848 8.55835 23.9457C7.32734 25.4342 7.181 27.9031 7.36585 29.7522C6.55074 29.6624 5.2196 29.8677 4.11824 30.2386C1.51374 31.1009 -0.30518 34.4141 0.649847 37.6452C1.95659 42.1442 6.98204 43.1541 10.4235 41.5603C10.3991 45.1956 13.4079 48.4896 17.3153 47.9764C19.5091 47.6928 21.7362 45.972 22.138 44.4039C22.577 43.1207 22.2073 40.9251 21.4012 39.5277C25.7232 39.4764 27.8489 36.285 27.0299 32.2224ZM16.8455 28.3587C16.9662 28.4934 16.5888 32.5304 16.6003 32.9217C16.9585 32.8242 17.9482 32.1223 18.4642 31.8285C23.8953 28.7693 24.9889 33.5082 24.2585 34.7465C23.36 36.6482 19.3897 36.534 16.9906 36.7598C17.169 37.5426 21.74 43.8829 17.1035 44.7619C11.7764 45.7731 13.0382 39.0824 13.0742 37.4707C10.1552 38.9746 5.79467 41.0637 4.02967 36.9934C2.55734 30.8917 10.6622 32.7947 12.0742 33.6198C10.6032 31.7425 10.1116 30.0974 10.2771 27.5502C10.4979 24.3435 16.626 23.6531 16.8455 28.3587Z" fill="#31688F"/>
<path fill-rule="evenodd" clip-rule="evenodd" d="M34.5148 41.717C34.1297 41.5322 33.9243 40.8675 34.1079 40.4774C34.2914 40.0873 34.9641 39.7678 35.5404 40.0399C37.8618 41.1088 39.8636 42.7654 41.3476 44.8455C42.9188 46.9961 43.8995 49.0352 44.4823 52.3766C44.6222 53.3005 44.1087 53.715 43.6838 53.7882C43.2589 53.8613 42.4554 53.7086 42.3052 52.9605C41.7661 49.8615 41.2205 48.0137 39.7918 46.0581C38.4387 44.1786 36.6203 42.6827 34.5148 41.717V41.717Z" fill="#FFD600"/>
<path fill-rule="evenodd" clip-rule="evenodd" d="M38.5172 40.1366C38.1321 39.9531 37.8626 39.4462 38.1437 38.802C38.6417 38.0988 39.2374 38.2451 39.6263 38.4299C43.4143 40.2264 47.554 45.6659 48.2652 49.7504C48.3371 50.1751 48.2652 50.8359 47.6234 51.0952C46.9443 51.3043 46.1844 50.7769 46.1112 50.3522C45.6312 47.5946 44.2987 45.6402 43.0305 43.9028C41.7623 42.1653 40.4427 41.0489 38.5172 40.1366Z" fill="#FFD600"/>
<path fill-rule="evenodd" clip-rule="evenodd" d="M43.2885 39.0722C43.1926 39.0164 43.1088 38.942 43.042 38.8534C42.9751 38.7649 42.9266 38.6639 42.8993 38.5564C42.8719 38.4489 42.8662 38.337 42.8826 38.2273C42.899 38.1175 42.937 38.0122 42.9945 37.9173C43.3552 37.404 43.8931 37.4977 44.2872 37.6812C47.0393 38.9849 50.0109 42.9821 50.5282 45.9528C50.7182 46.5944 50.3922 47.0807 49.9673 47.1526C49.5424 47.2244 49.002 46.9472 48.9301 46.5225C48.5668 44.4347 45.2345 39.9948 43.2885 39.0722Z" fill="#FFD600"/>
<path fill-rule="evenodd" clip-rule="evenodd" d="M24.4459 22.2526C19.8043 21.7047 16.4476 24.8395 15.2679 27.1352C14.1614 29.2884 13.5401 31.86 13.4901 34.9243C13.4863 35.2061 13.5947 35.4778 13.7914 35.6797C13.9881 35.8816 14.2569 35.9971 14.5388 36.0009C14.8207 36.0046 15.0925 35.8963 15.2945 35.6997C15.4965 35.5031 15.612 35.2343 15.6158 34.9525C15.671 31.5263 16.6658 27.2622 19.4667 24.7523C20.7272 23.6295 22.3433 22.9057 24.4459 22.2526Z" fill="#FFD600"/>
<path d="M33.4879 50.4593C34.0324 50.4593 34.4737 50.0181 34.4737 49.4738C34.4737 48.9295 34.0324 48.4883 33.4879 48.4883C32.9434 48.4883 32.5021 48.9295 32.5021 49.4738C32.5021 50.0181 32.9434 50.4593 33.4879 50.4593Z" fill="#0DB9BB"/>
<path d="M19.2819 22.4236C19.5187 22.4236 19.7107 22.2317 19.7107 21.995C19.7107 21.7583 19.5187 21.5664 19.2819 21.5664C19.0451 21.5664 18.8531 21.7583 18.8531 21.995C18.8531 22.2317 19.0451 22.4236 19.2819 22.4236Z" fill="#31688F"/>
<path fill-rule="evenodd" clip-rule="evenodd" d="M21.4449 20.7432C21.5297 20.7432 21.6126 20.7683 21.6831 20.8154C21.7536 20.8625 21.8085 20.9294 21.841 21.0077C21.8735 21.0861 21.8819 21.1722 21.8654 21.2554C21.8489 21.3385 21.808 21.4149 21.7481 21.4748C21.6881 21.5348 21.6117 21.5756 21.5285 21.5921C21.4453 21.6086 21.3591 21.6002 21.2808 21.5677C21.2024 21.5353 21.1355 21.4804 21.0883 21.4099C21.0412 21.3394 21.0161 21.2565 21.0161 21.1718C21.0164 21.0582 21.0617 20.9494 21.142 20.8691C21.2224 20.7888 21.3312 20.7435 21.4449 20.7432V20.7432Z" fill="#31688F"/>
<path fill-rule="evenodd" clip-rule="evenodd" d="M23.9813 20.542C24.0661 20.542 24.149 20.5671 24.2196 20.6142C24.2901 20.6613 24.345 20.7283 24.3775 20.8066C24.4099 20.8849 24.4184 20.9711 24.4019 21.0542C24.3853 21.1373 24.3445 21.2137 24.2845 21.2736C24.2246 21.3336 24.1482 21.3744 24.065 21.3909C23.9818 21.4075 23.8956 21.399 23.8172 21.3666C23.7389 21.3341 23.6719 21.2792 23.6248 21.2087C23.5777 21.1382 23.5526 21.0554 23.5526 20.9706C23.5524 20.9143 23.5634 20.8584 23.5848 20.8064C23.6063 20.7543 23.6379 20.707 23.6778 20.6671C23.7176 20.6273 23.7649 20.5958 23.817 20.5743C23.8691 20.5528 23.925 20.5418 23.9813 20.542V20.542Z" fill="#31688F"/>
<path fill-rule="evenodd" clip-rule="evenodd" d="M26.342 21.5146C26.4268 21.5146 26.5098 21.5398 26.5803 21.587C26.6509 21.6341 26.7058 21.7011 26.7382 21.7795C26.7706 21.8579 26.7791 21.9442 26.7624 22.0273C26.7458 22.1105 26.7048 22.1869 26.6447 22.2468C26.5846 22.3066 26.5081 22.3474 26.4248 22.3638C26.3416 22.3801 26.2553 22.3715 26.177 22.3388C26.0987 22.3062 26.0318 22.2511 25.9848 22.1804C25.9379 22.1098 25.9129 22.0268 25.9132 21.942C25.9135 21.8285 25.9588 21.7198 26.0392 21.6397C26.1196 21.5596 26.2285 21.5146 26.342 21.5146Z" fill="#31688F"/>
<path d="M25.1754 23.6059C25.266 23.3872 25.1621 23.1365 24.9434 23.0459C24.7246 22.9553 24.4738 23.0592 24.3832 23.2779C24.2925 23.4965 24.3964 23.7473 24.6152 23.8379C24.834 23.9284 25.0848 23.8246 25.1754 23.6059Z" fill="#31688F"/>
<path fill-rule="evenodd" clip-rule="evenodd" d="M22.7619 23.832C22.8467 23.832 22.9297 23.8572 23.0002 23.9044C23.0708 23.9515 23.1257 24.0185 23.1581 24.0969C23.1906 24.1753 23.199 24.2615 23.1823 24.3447C23.1657 24.4279 23.1247 24.5043 23.0646 24.5641C23.0045 24.624 22.928 24.6647 22.8447 24.6811C22.7615 24.6975 22.6752 24.6889 22.5969 24.6562C22.5186 24.6236 22.4517 24.5685 22.4047 24.4978C22.3578 24.4272 22.3328 24.3442 22.3331 24.2593C22.3331 24.2031 22.3442 24.1474 22.3658 24.0955C22.3873 24.0436 22.4189 23.9964 22.4588 23.9567C22.4986 23.917 22.5459 23.8856 22.5979 23.8642C22.6499 23.8428 22.7056 23.8319 22.7619 23.832V23.832Z" fill="#31688F"/>
<path fill-rule="evenodd" clip-rule="evenodd" d="M21.011 24.8096C21.0958 24.8096 21.1787 24.8347 21.2492 24.8818C21.3197 24.9289 21.3747 24.9958 21.4071 25.0741C21.4396 25.1525 21.4481 25.2386 21.4315 25.3218C21.415 25.4049 21.3741 25.4813 21.3142 25.5412C21.2542 25.6012 21.1778 25.642 21.0946 25.6585C21.0114 25.6751 20.9252 25.6666 20.8469 25.6341C20.7685 25.6017 20.7016 25.5468 20.6544 25.4763C20.6073 25.4058 20.5822 25.3229 20.5822 25.2382C20.582 25.1818 20.593 25.126 20.6145 25.0739C20.636 25.0219 20.6675 24.9746 20.7074 24.9347C20.7472 24.8949 20.7946 24.8633 20.8467 24.8419C20.8988 24.8204 20.9546 24.8094 21.011 24.8096V24.8096Z" fill="#31688F"/>
<path fill-rule="evenodd" clip-rule="evenodd" d="M22.283 56.1571L39.0204 8.58083L36.801 7.76855L21.8337 56.0121L22.283 56.1571Z" fill="#FFD600"/>
<path fill-rule="evenodd" clip-rule="evenodd" d="M18.7748 53.5447L48.9699 15.6195L47.409 14.2285L18.3961 53.1867L18.7748 53.5447Z" fill="#FFD600"/>
<path fill-rule="evenodd" clip-rule="evenodd" d="M39.444 0L41.7982 0.742978L39.8098 6.37113L37.5827 5.57682L39.444 0Z" fill="#31688F"/>
<path fill-rule="evenodd" clip-rule="evenodd" d="M54.5973 8.60865L52.6783 7.05469L49.0777 11.818L50.9107 13.2949L54.5973 8.60865Z" fill="#31688F"/>
<path d="M69.7988 48.8017C69.2221 48.8017 68.7792 48.637 68.4703 48.3076C68.1613 47.9782 68.0069 47.5252 68.0069 46.9488V28.3892C68.0069 27.7921 68.1716 27.3392 68.5012 27.0304C68.8307 26.701 69.2839 26.5363 69.8606 26.5363C70.3755 26.5363 70.7771 26.6392 71.0655 26.8451C71.3744 27.0304 71.6525 27.3598 71.8996 27.8333L79.5307 41.946H78.542L86.1731 27.8333C86.4202 27.3598 86.688 27.0304 86.9763 26.8451C87.2647 26.6392 87.6663 26.5363 88.1812 26.5363C88.7579 26.5363 89.2008 26.701 89.5097 27.0304C89.8187 27.3392 89.9731 27.7921 89.9731 28.3892V46.9488C89.9731 47.5252 89.8187 47.9782 89.5097 48.3076C89.2214 48.637 88.7785 48.8017 88.1812 48.8017C87.6045 48.8017 87.1617 48.637 86.8527 48.3076C86.5438 47.9782 86.3893 47.5252 86.3893 46.9488V32.6508H87.069L80.5811 44.4783C80.3751 44.8283 80.1589 45.0856 79.9323 45.2503C79.7057 45.415 79.3968 45.4974 79.0054 45.4974C78.6141 45.4974 78.2949 45.415 78.0477 45.2503C77.8005 45.065 77.5843 44.8077 77.3989 44.4783L70.8492 32.6199H71.5907V46.9488C71.5907 47.5252 71.4362 47.9782 71.1273 48.3076C70.8389 48.637 70.3961 48.8017 69.7988 48.8017Z" fill="#31688F"/>
<path d="M95.2921 48.8017C94.6742 48.8017 94.1902 48.637 93.8401 48.3076C93.5105 47.9576 93.3457 47.4635 93.3457 46.8253V35.1522C93.3457 34.4934 93.5105 34.0095 93.8401 33.7007C94.1902 33.3713 94.6742 33.2066 95.2921 33.2066C95.91 33.2066 96.3837 33.3713 96.7133 33.7007C97.0428 34.0095 97.2076 34.4934 97.2076 35.1522V39.2902H103.881V35.1522C103.881 34.4934 104.046 34.0095 104.375 33.7007C104.705 33.3713 105.178 33.2066 105.796 33.2066C106.414 33.2066 106.888 33.3713 107.218 33.7007C107.568 34.0095 107.743 34.4934 107.743 35.1522V46.8253C107.743 47.4635 107.568 47.9576 107.218 48.3076C106.888 48.637 106.414 48.8017 105.796 48.8017C105.178 48.8017 104.705 48.637 104.375 48.3076C104.046 47.9576 103.881 47.4635 103.881 46.8253V42.3166H97.2076V46.8253C97.2076 47.4635 97.0428 47.9576 96.7133 48.3076C96.4043 48.637 95.9306 48.8017 95.2921 48.8017Z" fill="#31688F"/>
<path d="M117.827 48.8634C116.261 48.8634 114.902 48.5443 113.749 47.9061C112.595 47.2679 111.699 46.3621 111.061 45.1886C110.422 43.9945 110.103 42.5945 110.103 40.9887C110.103 39.774 110.278 38.6932 110.628 37.7462C110.999 36.7786 111.524 35.9551 112.204 35.2757C112.884 34.5757 113.697 34.0507 114.645 33.7007C115.592 33.3302 116.653 33.1449 117.827 33.1449C119.392 33.1449 120.752 33.464 121.905 34.1022C123.058 34.7404 123.954 35.6463 124.593 36.8197C125.231 37.9932 125.551 39.3829 125.551 40.9887C125.551 42.2034 125.365 43.2945 124.994 44.2621C124.644 45.2297 124.129 46.0635 123.45 46.7635C122.77 47.4429 121.956 47.9679 121.009 48.3385C120.062 48.6884 119.001 48.8634 117.827 48.8634ZM117.827 45.9297C118.589 45.9297 119.258 45.7444 119.835 45.3739C120.412 45.0033 120.855 44.4577 121.163 43.7371C121.493 42.996 121.658 42.0798 121.658 40.9887C121.658 39.3417 121.308 38.1168 120.607 37.3138C119.907 36.4903 118.98 36.0786 117.827 36.0786C117.065 36.0786 116.395 36.2639 115.819 36.6345C115.242 36.9844 114.789 37.53 114.459 38.2712C114.15 38.9917 113.996 39.8976 113.996 40.9887C113.996 42.6151 114.346 43.8504 115.046 44.6945C115.747 45.518 116.673 45.9297 117.827 45.9297Z" fill="#31688F"/>
<path d="M129.84 48.8017C129.222 48.8017 128.738 48.6267 128.388 48.2767C128.058 47.9267 127.894 47.4326 127.894 46.7944V35.6154C127.894 34.9154 128.079 34.3801 128.45 34.0095C128.821 33.639 129.356 33.4537 130.056 33.4537H137.935C138.491 33.4537 138.903 33.5772 139.17 33.8243C139.438 34.0713 139.572 34.4522 139.572 34.9669C139.572 35.461 139.438 35.8418 139.17 36.1095C138.903 36.3565 138.491 36.48 137.935 36.48H131.756V46.7944C131.756 48.1326 131.117 48.8017 129.84 48.8017Z" fill="#31688F"/>
<path d="M147.698 48.8634C146.133 48.8634 144.774 48.5443 143.62 47.9061C142.467 47.2679 141.571 46.3621 140.932 45.1886C140.294 43.9945 139.975 42.5945 139.975 40.9887C139.975 39.774 140.15 38.6932 140.5 37.7462C140.871 36.7786 141.396 35.9551 142.075 35.2757C142.755 34.5757 143.569 34.0507 144.516 33.7007C145.464 33.3302 146.524 33.1449 147.698 33.1449C149.264 33.1449 150.623 33.464 151.776 34.1022C152.93 34.7404 153.826 35.6463 154.464 36.8197C155.103 37.9932 155.422 39.3829 155.422 40.9887C155.422 42.2034 155.237 43.2945 154.866 44.2621C154.516 45.2297 154.001 46.0635 153.321 46.7635C152.641 47.4429 151.828 47.9679 150.88 48.3385C149.933 48.6884 148.872 48.8634 147.698 48.8634ZM147.698 45.9297C148.46 45.9297 149.13 45.7444 149.706 45.3739C150.283 45.0033 150.726 44.4577 151.035 43.7371C151.365 42.996 151.529 42.0798 151.529 40.9887C151.529 39.3417 151.179 38.1168 150.479 37.3138C149.779 36.4903 148.852 36.0786 147.698 36.0786C146.936 36.0786 146.267 36.2639 145.69 36.6345C145.113 36.9844 144.66 37.53 144.331 38.2712C144.022 38.9917 143.867 39.8976 143.867 40.9887C143.867 42.6151 144.217 43.8504 144.918 44.6945C145.618 45.518 146.545 45.9297 147.698 45.9297Z" fill="#31688F"/>
<path d="M159.928 48.8017C159.289 48.8017 158.795 48.6267 158.445 48.2767C158.115 47.9061 157.951 47.4017 157.951 46.7635V28.7906C157.951 28.1318 158.126 27.6377 158.476 27.3083C158.826 26.9583 159.32 26.7833 159.959 26.7833H167.404C169.794 26.7833 171.637 27.3804 172.935 28.5744C174.232 29.7685 174.881 31.4361 174.881 33.5772C174.881 35.7183 174.232 37.3962 172.935 38.6109C171.637 39.8049 169.794 40.402 167.404 40.402H161.905V46.7635C161.905 47.4017 161.74 47.9061 161.411 48.2767C161.081 48.6267 160.587 48.8017 159.928 48.8017ZM161.905 37.283H166.787C168.187 37.283 169.248 36.9741 169.969 36.3565C170.69 35.7183 171.05 34.7919 171.05 33.5772C171.05 32.3625 170.69 31.4464 169.969 30.8288C169.248 30.2111 168.187 29.9023 166.787 29.9023H161.905V37.283Z" fill="#31688F"/>
<path d="M178.297 48.5546C177.679 48.5546 177.206 48.3899 176.876 48.0605C176.547 47.7311 176.382 47.2576 176.382 46.64V35.1522C176.382 34.4934 176.547 34.0095 176.876 33.7007C177.226 33.3713 177.71 33.2066 178.328 33.2066C178.946 33.2066 179.42 33.3713 179.749 33.7007C180.079 34.0095 180.244 34.4934 180.244 35.1522V38.4564H184.229C186.227 38.4564 187.731 38.8785 188.74 39.7226C189.77 40.5667 190.285 41.8019 190.285 43.4283C190.285 44.4577 190.037 45.3636 189.543 46.1459C189.049 46.9076 188.348 47.5047 187.442 47.937C186.557 48.3487 185.486 48.5546 184.229 48.5546H178.297ZM180.244 46.0224H183.642C184.61 46.0224 185.362 45.8165 185.897 45.4047C186.433 44.9724 186.701 44.3239 186.701 43.4592C186.701 42.6151 186.433 41.9975 185.897 41.6063C185.362 41.1946 184.61 40.9887 183.642 40.9887H180.244V46.0224ZM194.023 48.8017C193.405 48.8017 192.931 48.637 192.602 48.3076C192.272 47.9576 192.107 47.4635 192.107 46.8253V35.1522C192.107 34.4934 192.272 34.0095 192.602 33.7007C192.931 33.3713 193.405 33.2066 194.023 33.2066C194.641 33.2066 195.114 33.3713 195.444 33.7007C195.794 34.0095 195.969 34.4934 195.969 35.1522V46.8253C195.969 48.1429 195.32 48.8017 194.023 48.8017Z" fill="#31688F"/>
<path d="M206.207 48.8634C204.6 48.8634 203.2 48.534 202.005 47.8752C200.831 47.2164 199.925 46.2385 199.286 44.9415C198.648 43.6239 198.329 42.0078 198.329 40.0932V37.8388C198.329 35.8007 198.627 34.1022 199.224 32.7434C199.842 31.364 200.749 30.2626 201.943 29.4391C203.158 28.595 204.652 27.9568 206.423 27.5245L210.439 26.5363C210.975 26.3922 211.428 26.423 211.799 26.6289C212.169 26.8142 212.406 27.1642 212.509 27.6789C212.612 28.1936 212.53 28.6362 212.262 29.0068C211.994 29.3568 211.582 29.5935 211.026 29.717L206.701 30.7361C205.671 30.9832 204.806 31.3743 204.106 31.9096C203.406 32.4243 202.87 33.0728 202.499 33.8551C202.149 34.6375 201.974 35.5433 201.974 36.5727V38.2403H201.449C201.655 37.355 202.005 36.5624 202.499 35.8624C203.014 35.1624 203.673 34.6169 204.477 34.2257C205.28 33.814 206.217 33.6081 207.288 33.6081C208.544 33.6081 209.657 33.9169 210.625 34.5345C211.613 35.1316 212.386 35.9859 212.942 37.0977C213.498 38.2094 213.776 39.5373 213.776 41.0814C213.776 42.6666 213.457 44.046 212.818 45.2194C212.2 46.3723 211.325 47.2679 210.192 47.9061C209.059 48.5443 207.731 48.8634 206.207 48.8634ZM206.052 45.9297C206.876 45.9297 207.566 45.7547 208.122 45.4047C208.699 45.0342 209.131 44.4989 209.42 43.7989C209.729 43.0989 209.883 42.2446 209.883 41.2358C209.883 39.7329 209.543 38.58 208.864 37.7771C208.205 36.9536 207.267 36.5418 206.052 36.5418C205.249 36.5418 204.559 36.7271 203.982 37.0977C203.406 37.4477 202.963 37.9623 202.654 38.6417C202.365 39.3211 202.221 40.1343 202.221 41.0814C202.221 42.6666 202.551 43.871 203.21 44.6945C203.89 45.518 204.837 45.9297 206.052 45.9297Z" fill="#31688F"/>
<path d="M218.035 48.5546C217.417 48.5546 216.943 48.3899 216.613 48.0605C216.284 47.7311 216.119 47.2576 216.119 46.64V35.1522C216.119 34.4934 216.284 34.0095 216.613 33.7007C216.964 33.3713 217.448 33.2066 218.066 33.2066C218.683 33.2066 219.157 33.3713 219.487 33.7007C219.816 34.0095 219.981 34.4934 219.981 35.1522V38.4564H223.966C225.964 38.4564 227.468 38.8785 228.477 39.7226C229.507 40.5667 230.022 41.8019 230.022 43.4283C230.022 44.4577 229.775 45.3636 229.28 46.1459C228.786 46.9076 228.086 47.5047 227.18 47.937C226.294 48.3487 225.223 48.5546 223.966 48.5546H218.035ZM219.981 46.0224H223.379C224.347 46.0224 225.099 45.8165 225.635 45.4047C226.17 44.9724 226.438 44.3239 226.438 43.4592C226.438 42.6151 226.17 41.9975 225.635 41.6063C225.099 41.1946 224.347 40.9887 223.379 40.9887H219.981V46.0224ZM233.76 48.8017C233.142 48.8017 232.669 48.637 232.339 48.3076C232.009 47.9576 231.845 47.4635 231.845 46.8253V35.1522C231.845 34.4934 232.009 34.0095 232.339 33.7007C232.669 33.3713 233.142 33.2066 233.76 33.2066C234.378 33.2066 234.852 33.3713 235.181 33.7007C235.531 34.0095 235.707 34.4934 235.707 35.1522V46.8253C235.707 48.1429 235.058 48.8017 233.76 48.8017Z" fill="#31688F"/>
<path d="M117.132 68.9332C116.899 68.9332 116.719 68.87 116.593 68.7438C116.467 68.6175 116.403 68.433 116.403 68.1903V59.7417C116.403 59.4989 116.467 59.3144 116.593 59.1882C116.719 59.0619 116.894 58.9988 117.118 58.9988C117.351 58.9988 117.53 59.0619 117.657 59.1882C117.783 59.3144 117.846 59.4989 117.846 59.7417V61.009L117.686 60.7031C117.841 60.1787 118.147 59.7611 118.604 59.4504C119.061 59.1299 119.6 58.9697 120.222 58.9697C120.853 58.9697 121.402 59.1202 121.868 59.4212C122.344 59.7223 122.709 60.1447 122.961 60.6885C123.224 61.2323 123.355 61.8878 123.355 62.655C123.355 63.4027 123.224 64.0582 122.961 64.6215C122.709 65.175 122.349 65.6023 121.883 65.9033C121.417 66.1947 120.863 66.3403 120.222 66.3403C119.609 66.3403 119.075 66.1849 118.619 65.8742C118.162 65.5634 117.856 65.1507 117.7 64.636H117.875V68.1903C117.875 68.433 117.807 68.6175 117.671 68.7438C117.545 68.87 117.365 68.9332 117.132 68.9332ZM119.857 65.2041C120.265 65.2041 120.62 65.107 120.921 64.9128C121.222 64.7186 121.455 64.4321 121.621 64.0534C121.786 63.6747 121.868 63.2085 121.868 62.655C121.868 61.8199 121.684 61.1886 121.315 60.7614C120.955 60.3341 120.469 60.1204 119.857 60.1204C119.459 60.1204 119.104 60.2175 118.793 60.4118C118.492 60.5963 118.259 60.8779 118.094 61.2566C117.929 61.6353 117.846 62.1015 117.846 62.655C117.846 63.4804 118.031 64.1116 118.4 64.5486C118.769 64.9856 119.255 65.2041 119.857 65.2041Z" fill="#0DB9BB"/>
<path d="M128.103 66.3403C127.384 66.3403 126.762 66.1898 126.238 65.8888C125.723 65.5877 125.319 65.1604 125.028 64.6069C124.737 64.0534 124.591 63.4027 124.591 62.655C124.591 62.0821 124.673 61.5722 124.839 61.1255C125.004 60.6788 125.237 60.2952 125.538 59.9748C125.849 59.6446 126.218 59.397 126.646 59.2319C127.083 59.0571 127.569 58.9697 128.103 58.9697C128.812 58.9697 129.424 59.1202 129.939 59.4212C130.464 59.7223 130.872 60.1496 131.163 60.7031C131.455 61.2469 131.6 61.8975 131.6 62.655C131.6 63.2182 131.518 63.7281 131.353 64.1845C131.187 64.6409 130.949 65.0293 130.639 65.3498C130.337 65.6703 129.968 65.9179 129.531 66.0927C129.104 66.2578 128.627 66.3403 128.103 66.3403ZM128.103 65.2041C128.501 65.2041 128.851 65.107 129.152 64.9128C129.453 64.7186 129.686 64.4321 129.852 64.0534C130.026 63.6747 130.114 63.2085 130.114 62.655C130.114 61.8199 129.929 61.1886 129.56 60.7614C129.191 60.3341 128.705 60.1204 128.103 60.1204C127.695 60.1204 127.34 60.2175 127.039 60.4118C126.738 60.5963 126.5 60.8779 126.325 61.2566C126.16 61.6353 126.077 62.1015 126.077 62.655C126.077 63.4804 126.262 64.1116 126.631 64.5486C127 64.9856 127.491 65.2041 128.103 65.2041Z" fill="#0DB9BB"/>
<path d="M133.982 66.3112C133.749 66.3112 133.569 66.2481 133.443 66.1218C133.317 65.9859 133.253 65.8014 133.253 65.5683V56.5808C133.253 56.338 133.317 56.1535 133.443 56.0273C133.569 55.901 133.749 55.8379 133.982 55.8379C134.215 55.8379 134.395 55.901 134.521 56.0273C134.657 56.1535 134.725 56.338 134.725 56.5808V62.2034H134.754L137.48 59.4941C137.635 59.3387 137.776 59.2173 137.902 59.1299C138.028 59.0425 138.194 58.9988 138.398 58.9988C138.602 58.9988 138.757 59.0522 138.864 59.159C138.971 59.2659 139.024 59.397 139.024 59.5523C139.024 59.698 138.951 59.8485 138.806 60.0039L135.92 62.8589V62.1743L139.068 65.3061C139.223 65.4615 139.296 65.6168 139.287 65.7722C139.277 65.9276 139.214 66.0587 139.097 66.1655C138.981 66.2626 138.835 66.3112 138.66 66.3112C138.436 66.3112 138.257 66.2675 138.121 66.1801C137.994 66.0927 137.844 65.9616 137.669 65.7868L134.754 62.9609H134.725V65.5683C134.725 66.0636 134.477 66.3112 133.982 66.3112Z" fill="#0DB9BB"/>
<path d="M143.948 66.3403C143.171 66.3403 142.501 66.1947 141.937 65.9033C141.383 65.6023 140.951 65.1799 140.64 64.636C140.339 64.0825 140.188 63.427 140.188 62.6696C140.188 61.9315 140.339 61.2858 140.64 60.7322C140.941 60.1787 141.354 59.7466 141.879 59.4358C142.403 59.1251 143.001 58.9697 143.671 58.9697C144.167 58.9697 144.609 59.0522 144.997 59.2173C145.386 59.3727 145.716 59.6058 145.988 59.9165C146.27 60.2175 146.479 60.5866 146.615 61.0236C146.761 61.4605 146.834 61.951 146.834 62.4948C146.834 62.6599 146.785 62.7861 146.688 62.8735C146.591 62.9512 146.445 62.99 146.251 62.99H141.354V62.0869H145.843L145.595 62.2908C145.595 61.8053 145.522 61.3926 145.376 61.0527C145.24 60.7128 145.031 60.4555 144.75 60.2807C144.478 60.0962 144.138 60.0039 143.73 60.0039C143.273 60.0039 142.884 60.1107 142.564 60.3244C142.253 60.538 142.015 60.8342 141.85 61.2129C141.685 61.5916 141.602 62.0335 141.602 62.5385V62.6259C141.602 63.4804 141.801 64.1262 142.199 64.5632C142.607 64.9905 143.195 65.2041 143.963 65.2041C144.254 65.2041 144.56 65.1653 144.881 65.0876C145.211 65.0099 145.522 64.8788 145.813 64.6943C145.979 64.5972 146.124 64.5535 146.251 64.5632C146.387 64.5729 146.494 64.6166 146.571 64.6943C146.659 64.772 146.712 64.8691 146.732 64.9856C146.751 65.1022 146.732 65.2236 146.673 65.3498C146.615 65.4663 146.513 65.5732 146.367 65.6703C146.037 65.8936 145.653 66.0636 145.216 66.1801C144.779 66.2869 144.356 66.3403 143.948 66.3403Z" fill="#0DB9BB"/>
<path d="M149.104 62.9172C148.93 62.9172 148.784 62.8589 148.667 62.7424C148.551 62.6259 148.492 62.4851 148.492 62.32C148.492 62.1452 148.551 62.0044 148.667 61.8975C148.784 61.781 148.93 61.7227 149.104 61.7227H152.31C152.476 61.7227 152.617 61.781 152.733 61.8975C152.85 62.0044 152.908 62.1452 152.908 62.32C152.908 62.4851 152.85 62.6259 152.733 62.7424C152.617 62.8589 152.476 62.9172 152.31 62.9172H149.104Z" fill="#0DB9BB"/>
<path d="M155.6 66.3112C155.357 66.3112 155.172 66.2481 155.046 66.1218C154.92 65.9859 154.857 65.8014 154.857 65.5683V59.7417C154.857 59.4989 154.92 59.3144 155.046 59.1882C155.172 59.0619 155.347 58.9988 155.571 58.9988C155.804 58.9988 155.979 59.0619 156.095 59.1882C156.222 59.3144 156.285 59.4989 156.285 59.7417V60.8051H156.139C156.294 60.2224 156.581 59.7805 156.999 59.4795C157.417 59.1785 157.951 59.0037 158.602 58.9551C158.777 58.9454 158.913 58.9891 159.01 59.0862C159.117 59.1833 159.175 59.3338 159.185 59.5378C159.204 59.7417 159.16 59.9068 159.054 60.033C158.947 60.1496 158.782 60.2175 158.558 60.237L158.281 60.2661C157.65 60.3244 157.169 60.5234 156.838 60.8633C156.508 61.2032 156.343 61.6693 156.343 62.2617V65.5683C156.343 65.8014 156.28 65.9859 156.154 66.1218C156.037 66.2481 155.852 66.3112 155.6 66.3112Z" fill="#0DB9BB"/>
<path d="M163.283 66.3403C162.564 66.3403 161.942 66.1898 161.417 65.8888C160.903 65.5877 160.499 65.1604 160.208 64.6069C159.916 64.0534 159.771 63.4027 159.771 62.655C159.771 62.0821 159.853 61.5722 160.018 61.1255C160.184 60.6788 160.417 60.2952 160.718 59.9748C161.029 59.6446 161.398 59.397 161.825 59.2319C162.263 59.0571 162.748 58.9697 163.283 58.9697C163.992 58.9697 164.604 59.1202 165.119 59.4212C165.644 59.7223 166.052 60.1496 166.343 60.7031C166.635 61.2469 166.78 61.8975 166.78 62.655C166.78 63.2182 166.698 63.7281 166.533 64.1845C166.367 64.6409 166.129 65.0293 165.818 65.3498C165.517 65.6703 165.148 65.9179 164.711 66.0927C164.283 66.2578 163.807 66.3403 163.283 66.3403ZM163.283 65.2041C163.681 65.2041 164.031 65.107 164.332 64.9128C164.633 64.7186 164.866 64.4321 165.032 64.0534C165.206 63.6747 165.294 63.2085 165.294 62.655C165.294 61.8199 165.109 61.1886 164.74 60.7614C164.371 60.3341 163.885 60.1204 163.283 60.1204C162.875 60.1204 162.52 60.2175 162.219 60.4118C161.918 60.5963 161.68 60.8779 161.505 61.2566C161.34 61.6353 161.257 62.1015 161.257 62.655C161.257 63.4804 161.442 64.1116 161.811 64.5486C162.18 64.9856 162.671 65.2041 163.283 65.2041Z" fill="#0DB9BB"/>
<path d="M171.523 66.3403C170.804 66.3403 170.182 66.1898 169.657 65.8888C169.142 65.5877 168.739 65.1604 168.448 64.6069C168.156 64.0534 168.011 63.4027 168.011 62.655C168.011 62.0821 168.093 61.5722 168.258 61.1255C168.424 60.6788 168.657 60.2952 168.958 59.9748C169.269 59.6446 169.638 59.397 170.065 59.2319C170.503 59.0571 170.988 58.9697 171.523 58.9697C172.232 58.9697 172.844 59.1202 173.359 59.4212C173.884 59.7223 174.292 60.1496 174.583 60.7031C174.874 61.2469 175.02 61.8975 175.02 62.655C175.02 63.2182 174.938 63.7281 174.772 64.1845C174.607 64.6409 174.369 65.0293 174.058 65.3498C173.757 65.6703 173.388 65.9179 172.951 66.0927C172.523 66.2578 172.047 66.3403 171.523 66.3403ZM171.523 65.2041C171.921 65.2041 172.271 65.107 172.572 64.9128C172.873 64.7186 173.106 64.4321 173.271 64.0534C173.446 63.6747 173.534 63.2085 173.534 62.655C173.534 61.8199 173.349 61.1886 172.98 60.7614C172.611 60.3341 172.125 60.1204 171.523 60.1204C171.115 60.1204 170.76 60.2175 170.459 60.4118C170.158 60.5963 169.92 60.8779 169.745 61.2566C169.58 61.6353 169.497 62.1015 169.497 62.655C169.497 63.4804 169.682 64.1116 170.051 64.5486C170.42 64.9856 170.911 65.2041 171.523 65.2041Z" fill="#0DB9BB"/>
<path d="M177.431 66.3112C177.198 66.3112 177.018 66.2481 176.892 66.1218C176.765 65.9859 176.702 65.8014 176.702 65.5683V59.7417C176.702 59.4989 176.765 59.3144 176.892 59.1882C177.018 59.0619 177.193 58.9988 177.416 58.9988C177.65 58.9988 177.824 59.0619 177.941 59.1882C178.067 59.3144 178.13 59.4989 178.13 59.7417V60.9362L177.97 60.6157C178.164 60.101 178.466 59.698 178.874 59.4067C179.282 59.1153 179.772 58.9697 180.346 58.9697C180.938 58.9697 181.419 59.1105 181.788 59.3921C182.157 59.6737 182.41 60.1059 182.546 60.6885H182.342C182.527 60.1544 182.842 59.7368 183.289 59.4358C183.736 59.1251 184.256 58.9697 184.849 58.9697C185.393 58.9697 185.84 59.0765 186.189 59.2901C186.539 59.4941 186.801 59.8097 186.976 60.237C187.151 60.6545 187.239 61.1838 187.239 61.8247V65.5683C187.239 65.8014 187.171 65.9859 187.035 66.1218C186.908 66.2481 186.729 66.3112 186.495 66.3112C186.262 66.3112 186.082 66.2481 185.956 66.1218C185.83 65.9859 185.767 65.8014 185.767 65.5683V61.8975C185.767 61.2955 185.66 60.8536 185.446 60.572C185.242 60.2904 184.902 60.1496 184.426 60.1496C183.892 60.1496 183.469 60.3341 183.158 60.7031C182.847 61.0721 182.692 61.5819 182.692 62.2326V65.5683C182.692 65.8014 182.629 65.9859 182.502 66.1218C182.376 66.2481 182.196 66.3112 181.963 66.3112C181.73 66.3112 181.545 66.2481 181.409 66.1218C181.283 65.9859 181.22 65.8014 181.22 65.5683V61.8975C181.22 61.2955 181.118 60.8536 180.914 60.572C180.71 60.2904 180.37 60.1496 179.894 60.1496C179.359 60.1496 178.937 60.3341 178.626 60.7031C178.325 61.0721 178.174 61.5819 178.174 62.2326V65.5683C178.174 66.0636 177.926 66.3112 177.431 66.3112Z" fill="#0DB9BB"/>
</svg>
