<svg width="236" height="70" viewBox="0 0 236 70" fill="none" xmlns="http://www.w3.org/2000/svg">
<g clip-path="url(#clip0_25_1318)">
<path fill-rule="evenodd" clip-rule="evenodd" d="M34.0903 57.5465C37.0978 57.6376 40.235 56.9947 42.6766 56.0734C44.2484 55.5152 46.7004 54.0446 47.927 52.9436C48.888 52.0787 50.266 50.7211 50.9473 49.5919C52.0906 47.6889 52.5191 47.1538 53.3505 44.7375L54.155 41.9144C55.483 41.7682 57.3075 42.1557 58.8203 42.4598C57.5526 38.4357 54.7144 38.2599 54.4039 38.2727C54.6875 35.8821 54.9351 34.1241 52.5307 32.0479C52.2663 32.8178 51.3271 35.7101 50.9538 36.2298C50.2673 35.9296 45.5572 34.518 40.2504 36.0284C35.4837 37.2782 32.4955 39.7497 29.5264 43.299C28.7951 44.1716 27.7943 46.0412 27.3632 47.1191C26.7704 48.6064 26.3098 50.1539 26.1738 51.9299C26.1301 52.5125 26.0236 54.3 26.1738 54.7902C26.6382 56.2954 32.7752 57.5067 34.0903 57.5465ZM29.4854 53.0553C29.1492 50.0295 31.3651 46.0772 33.3282 43.974C36.5615 39.996 45.978 37.0793 50.7947 40.118C51.381 44.7375 46.4322 50.6018 42.3828 52.6652C37.9588 55.306 31.7705 54.0228 29.4854 53.054V53.0553Z" fill="#CCD2E3"/>
<path fill-rule="evenodd" clip-rule="evenodd" d="M39.1097 64.0163C44.242 62.6163 48.3016 60.9828 51.884 57.7286C55.1545 54.7593 58.4713 49.1196 59.4798 44.8542L55.6755 44.0137C54.7478 48.4048 51.1667 53.2733 47.5023 55.9039C40.4954 60.9315 32.3453 61.9414 23.8937 59.2608C19.3337 57.8146 15.1227 54.5385 12.4872 50.7916C10.2726 47.6375 9.6311 44.8324 9.18715 44.1869L5.67923 45.0929C8.67392 53.7584 13.6086 59.3634 22.2565 62.6523C23.1547 62.9949 25.1999 63.6878 25.9852 63.8508C26.3701 65.3611 26.2148 66.6572 27.3965 68.0251C28.2716 69.0337 30.5734 68.958 32.2722 68.9721C33.971 68.9862 36.1484 69.0285 37.4353 68.4678C38.6773 67.7389 38.7954 65.4253 39.1097 64.0163Z" fill="#CCD2E3"/>
<path fill-rule="evenodd" clip-rule="evenodd" d="M27.018 32.2224C26.415 29.2325 23.7128 27.0267 19.8456 27.794C19.6391 27.4694 19.3671 26.0976 19.0078 25.4586C16.6854 21.319 11.4967 20.3848 8.5546 23.9457C7.32413 25.4342 7.17786 27.9031 7.36262 29.7522C6.54787 29.6624 5.21732 29.8677 4.11645 30.2386C1.51309 31.1009 -0.305026 34.4141 0.649581 37.6452C1.95575 42.1442 6.97898 43.1541 10.4189 41.5603C10.3945 45.1956 13.402 48.4896 17.3077 47.9764C19.5005 47.6928 21.7266 45.972 22.1282 44.4039C22.567 43.1207 22.1975 40.9251 21.3917 39.5277C25.7119 39.4764 27.8366 36.285 27.018 32.2224ZM16.8381 28.3587C16.9587 28.4934 16.5815 32.5304 16.5931 32.9217C16.951 32.8242 17.9403 32.1223 18.4561 31.8285C23.8848 28.7693 24.9779 33.5082 24.2479 34.7465C23.3497 36.6482 19.3812 36.534 16.9831 36.7598C17.1615 37.5426 21.7305 43.8829 17.096 44.7619C11.7713 45.7731 13.0325 39.0824 13.0684 37.4707C10.1507 38.9746 5.79214 41.0637 4.02791 36.9934C2.55623 30.8917 10.6576 32.7947 12.0689 33.6198C10.5985 31.7425 10.1071 30.0974 10.2726 27.5502C10.4933 24.3435 16.6187 23.6531 16.8381 28.3587Z" fill="white"/>
<path fill-rule="evenodd" clip-rule="evenodd" d="M34.4996 41.717C34.1147 41.5322 33.9094 40.8675 34.0929 40.4774C34.2763 40.0873 34.9487 39.7678 35.5248 40.0399C37.8451 41.1088 39.846 42.7654 41.3294 44.8455C42.8999 46.9961 43.8801 49.0352 44.4627 52.3766C44.6025 53.3005 44.0893 53.715 43.6646 53.7882C43.2399 53.8613 42.4367 53.7086 42.2866 52.9605C41.7477 49.8615 41.2024 48.0137 39.7743 46.0581C38.4217 44.1786 36.6041 42.6827 34.4996 41.717V41.717Z" fill="#CCD2E3"/>
<path fill-rule="evenodd" clip-rule="evenodd" d="M38.5003 40.1366C38.1153 39.9531 37.8459 39.4462 38.1269 38.802C38.6247 38.0988 39.2201 38.2451 39.6088 38.4299C43.3952 40.2264 47.5331 45.6659 48.2439 49.7504C48.3158 50.1751 48.2439 50.8359 47.6024 51.0952C46.9236 51.3043 46.1641 50.7769 46.0909 50.3522C45.6111 47.5946 44.2792 45.6402 43.0115 43.9028C41.7439 42.1653 40.4249 41.0489 38.5003 40.1366Z" fill="#CCD2E3"/>
<path fill-rule="evenodd" clip-rule="evenodd" d="M43.2694 39.0722C43.1736 39.0164 43.0898 38.942 43.023 38.8534C42.9562 38.7649 42.9078 38.6639 42.8804 38.5564C42.8531 38.4489 42.8474 38.337 42.8637 38.2273C42.8801 38.1175 42.9181 38.0122 42.9756 37.9173C43.3362 37.404 43.8738 37.4977 44.2677 37.6812C47.0186 38.9849 49.9889 42.9821 50.506 45.9528C50.6959 46.5944 50.37 47.0807 49.9453 47.1526C49.5206 47.2244 48.9804 46.9472 48.9086 46.5225C48.5454 44.4347 45.2146 39.9948 43.2694 39.0722Z" fill="#CCD2E3"/>
<path fill-rule="evenodd" clip-rule="evenodd" d="M24.4352 22.2526C19.7956 21.7047 16.4404 24.8395 15.2612 27.1352C14.1552 29.2884 13.5342 31.86 13.4842 34.9243C13.4804 35.2061 13.5888 35.4778 13.7853 35.6797C13.9819 35.8816 14.2507 35.9971 14.5324 36.0009C14.8142 36.0046 15.0859 35.8963 15.2878 35.6997C15.4897 35.5031 15.6052 35.2343 15.6089 34.9525C15.6641 31.5263 16.6585 27.2622 19.4582 24.7523C20.7181 23.6295 22.3335 22.9057 24.4352 22.2526Z" fill="#CCD2E3"/>
<path d="M33.4732 50.4593C34.0174 50.4593 34.4586 50.0181 34.4586 49.4738C34.4586 48.9295 34.0174 48.4883 33.4732 48.4883C32.9289 48.4883 32.4878 48.9295 32.4878 49.4738C32.4878 50.0181 32.9289 50.4593 33.4732 50.4593Z" fill="#CCD2E3"/>
<path d="M19.2734 22.4236C19.5101 22.4236 19.702 22.2317 19.702 21.995C19.702 21.7583 19.5101 21.5664 19.2734 21.5664C19.0367 21.5664 18.8448 21.7583 18.8448 21.995C18.8448 22.2317 19.0367 22.4236 19.2734 22.4236Z" fill="white"/>
<path fill-rule="evenodd" clip-rule="evenodd" d="M21.4354 20.7432C21.5202 20.7432 21.6031 20.7683 21.6735 20.8154C21.744 20.8625 21.799 20.9294 21.8314 21.0077C21.8638 21.0861 21.8723 21.1722 21.8558 21.2554C21.8392 21.3385 21.7984 21.4149 21.7385 21.4748C21.6785 21.5348 21.6022 21.5756 21.519 21.5921C21.4359 21.6086 21.3497 21.6002 21.2714 21.5677C21.1931 21.5353 21.1262 21.4804 21.0791 21.4099C21.032 21.3394 21.0068 21.2565 21.0068 21.1718C21.0072 21.0582 21.0524 20.9494 21.1327 20.8691C21.213 20.7888 21.3219 20.7435 21.4354 20.7432V20.7432Z" fill="white"/>
<path fill-rule="evenodd" clip-rule="evenodd" d="M23.9708 20.542C24.0555 20.542 24.1384 20.5671 24.2089 20.6142C24.2794 20.6613 24.3343 20.7283 24.3667 20.8066C24.3992 20.8849 24.4077 20.9711 24.3911 21.0542C24.3746 21.1373 24.3338 21.2137 24.2738 21.2736C24.2139 21.3336 24.1375 21.3744 24.0544 21.3909C23.9712 21.4075 23.8851 21.399 23.8068 21.3666C23.7284 21.3341 23.6615 21.2792 23.6144 21.2087C23.5673 21.1382 23.5422 21.0554 23.5422 20.9706C23.542 20.9143 23.553 20.8584 23.5745 20.8064C23.5959 20.7543 23.6275 20.707 23.6673 20.6671C23.7072 20.6273 23.7545 20.5958 23.8066 20.5743C23.8586 20.5528 23.9144 20.5418 23.9708 20.542V20.542Z" fill="white"/>
<path fill-rule="evenodd" clip-rule="evenodd" d="M26.3304 21.5146C26.4152 21.5146 26.4981 21.5398 26.5686 21.587C26.6391 21.6341 26.694 21.7011 26.7264 21.7795C26.7588 21.8579 26.7673 21.9442 26.7506 22.0273C26.734 22.1105 26.693 22.1869 26.633 22.2468C26.5729 22.3066 26.4964 22.3474 26.4132 22.3638C26.33 22.3801 26.2437 22.3715 26.1655 22.3388C26.0872 22.3062 26.0203 22.2511 25.9734 22.1804C25.9264 22.1098 25.9015 22.0268 25.9018 21.942C25.9021 21.8285 25.9474 21.7198 26.0278 21.6397C26.1081 21.5596 26.2169 21.5146 26.3304 21.5146Z" fill="white"/>
<path d="M25.1644 23.6059C25.2549 23.3872 25.1511 23.1365 24.9324 23.0459C24.7137 22.9553 24.463 23.0592 24.3724 23.2779C24.2819 23.4965 24.3857 23.7473 24.6044 23.8379C24.8231 23.9284 25.0738 23.8246 25.1644 23.6059Z" fill="white"/>
<path fill-rule="evenodd" clip-rule="evenodd" d="M22.7519 23.832C22.8367 23.832 22.9196 23.8572 22.9901 23.9044C23.0606 23.9515 23.1156 24.0185 23.148 24.0969C23.1804 24.1753 23.1888 24.2615 23.1721 24.3447C23.1555 24.4279 23.1145 24.5043 23.0545 24.5641C22.9944 24.624 22.9179 24.6647 22.8347 24.6811C22.7515 24.6975 22.6653 24.6889 22.587 24.6562C22.5087 24.6236 22.4418 24.5685 22.3949 24.4978C22.3479 24.4272 22.323 24.3442 22.3233 24.2593C22.3233 24.2031 22.3344 24.1474 22.3559 24.0955C22.3775 24.0436 22.4091 23.9964 22.4489 23.9567C22.4887 23.917 22.536 23.8856 22.5879 23.8642C22.6399 23.8428 22.6956 23.8319 22.7519 23.832V23.832Z" fill="white"/>
<path fill-rule="evenodd" clip-rule="evenodd" d="M21.0017 24.8096C21.0865 24.8096 21.1693 24.8347 21.2398 24.8818C21.3103 24.9289 21.3652 24.9958 21.3977 25.0741C21.4301 25.1525 21.4386 25.2386 21.4221 25.3218C21.4055 25.4049 21.3647 25.4813 21.3048 25.5412C21.2448 25.6012 21.1685 25.642 21.0853 25.6585C21.0022 25.6751 20.916 25.6666 20.8377 25.6341C20.7594 25.6017 20.6924 25.5468 20.6454 25.4763C20.5983 25.4058 20.5731 25.3229 20.5731 25.2382C20.573 25.1818 20.5839 25.126 20.6054 25.0739C20.6269 25.0219 20.6584 24.9746 20.6983 24.9347C20.7381 24.8949 20.7854 24.8633 20.8375 24.8419C20.8896 24.8204 20.9454 24.8094 21.0017 24.8096V24.8096Z" fill="white"/>
<path fill-rule="evenodd" clip-rule="evenodd" d="M22.2732 56.1571L39.0032 8.58083L36.7848 7.76855L21.8242 56.0121L22.2732 56.1571Z" fill="#CCD2E3"/>
<path fill-rule="evenodd" clip-rule="evenodd" d="M18.7666 53.5447L48.9483 15.6195L47.3881 14.2285L18.3881 53.1867L18.7666 53.5447Z" fill="#CCD2E3"/>
<path fill-rule="evenodd" clip-rule="evenodd" d="M39.4266 0L41.7798 0.742978L39.7923 6.37113L37.5662 5.57682L39.4266 0Z" fill="white"/>
<path fill-rule="evenodd" clip-rule="evenodd" d="M54.5733 8.60865L52.6551 7.05469L49.0561 11.818L50.8883 13.2949L54.5733 8.60865Z" fill="white"/>
<path d="M69.768 48.8017C69.1915 48.8017 68.7489 48.637 68.4401 48.3076C68.1313 47.9782 67.9769 47.5252 67.9769 46.9488V28.3892C67.9769 27.7921 68.1416 27.3392 68.471 27.0304C68.8004 26.701 69.2533 26.5363 69.8297 26.5363C70.3444 26.5363 70.7459 26.6392 71.0341 26.8451C71.3429 27.0304 71.6209 27.3598 71.8679 27.8333L79.4956 41.946H78.5074L86.1351 27.8333C86.3821 27.3598 86.6497 27.0304 86.938 26.8451C87.2262 26.6392 87.6277 26.5363 88.1423 26.5363C88.7188 26.5363 89.1614 26.701 89.4702 27.0304C89.779 27.3392 89.9335 27.7921 89.9335 28.3892V46.9488C89.9335 47.5252 89.779 47.9782 89.4702 48.3076C89.182 48.637 88.7394 48.8017 88.1423 48.8017C87.5659 48.8017 87.1233 48.637 86.8144 48.3076C86.5056 47.9782 86.3512 47.5252 86.3512 46.9488V32.6508H87.0306L80.5455 44.4783C80.3397 44.8283 80.1235 45.0856 79.897 45.2503C79.6706 45.415 79.3618 45.4974 78.9706 45.4974C78.5794 45.4974 78.2603 45.415 78.0133 45.2503C77.7662 45.065 77.5501 44.8077 77.3648 44.4783L70.8179 32.6199H71.5591V46.9488C71.5591 47.5252 71.4047 47.9782 71.0959 48.3076C70.8077 48.637 70.365 48.8017 69.768 48.8017Z" fill="white"/>
<path d="M95.2501 48.8017C94.6325 48.8017 94.1487 48.637 93.7987 48.3076C93.4693 47.9576 93.3046 47.4635 93.3046 46.8253V35.1522C93.3046 34.4934 93.4693 34.0095 93.7987 33.7007C94.1487 33.3713 94.6325 33.2066 95.2501 33.2066C95.8677 33.2066 96.3412 33.3713 96.6706 33.7007C97 34.0095 97.1647 34.4934 97.1647 35.1522V39.2902H103.835V35.1522C103.835 34.4934 104 34.0095 104.329 33.7007C104.659 33.3713 105.132 33.2066 105.75 33.2066C106.367 33.2066 106.841 33.3713 107.17 33.7007C107.52 34.0095 107.695 34.4934 107.695 35.1522V46.8253C107.695 47.4635 107.52 47.9576 107.17 48.3076C106.841 48.637 106.367 48.8017 105.75 48.8017C105.132 48.8017 104.659 48.637 104.329 48.3076C104 47.9576 103.835 47.4635 103.835 46.8253V42.3166H97.1647V46.8253C97.1647 47.4635 97 47.9576 96.6706 48.3076C96.3618 48.637 95.8883 48.8017 95.2501 48.8017Z" fill="white"/>
<path d="M117.775 48.8634C116.21 48.8634 114.851 48.5443 113.699 47.9061C112.546 47.2679 111.65 46.3621 111.012 45.1886C110.374 43.9945 110.055 42.5945 110.055 40.9887C110.055 39.774 110.23 38.6932 110.58 37.7462C110.95 36.7786 111.475 35.9551 112.154 35.2757C112.834 34.5757 113.647 34.0507 114.594 33.7007C115.541 33.3302 116.601 33.1449 117.775 33.1449C119.34 33.1449 120.698 33.464 121.851 34.1022C123.004 34.7404 123.9 35.6463 124.538 36.8197C125.176 37.9932 125.495 39.3829 125.495 40.9887C125.495 42.2034 125.31 43.2945 124.939 44.2621C124.589 45.2297 124.075 46.0635 123.395 46.7635C122.716 47.4429 121.903 47.9679 120.956 48.3385C120.009 48.6884 118.948 48.8634 117.775 48.8634ZM117.775 45.9297C118.537 45.9297 119.206 45.7444 119.782 45.3739C120.359 45.0033 120.801 44.4577 121.11 43.7371C121.439 42.996 121.604 42.0798 121.604 40.9887C121.604 39.3417 121.254 38.1168 120.554 37.3138C119.854 36.4903 118.928 36.0786 117.775 36.0786C117.013 36.0786 116.344 36.2639 115.768 36.6345C115.191 36.9844 114.738 37.53 114.409 38.2712C114.1 38.9917 113.946 39.8976 113.946 40.9887C113.946 42.6151 114.296 43.8504 114.996 44.6945C115.696 45.518 116.622 45.9297 117.775 45.9297Z" fill="white"/>
<path d="M129.783 48.8017C129.165 48.8017 128.681 48.6267 128.331 48.2767C128.002 47.9267 127.837 47.4326 127.837 46.7944V35.6154C127.837 34.9154 128.023 34.3801 128.393 34.0095C128.764 33.639 129.299 33.4537 129.999 33.4537H137.874C138.43 33.4537 138.841 33.5772 139.109 33.8243C139.377 34.0713 139.51 34.4522 139.51 34.9669C139.51 35.461 139.377 35.8418 139.109 36.1095C138.841 36.3565 138.43 36.48 137.874 36.48H131.697V46.7944C131.697 48.1326 131.059 48.8017 129.783 48.8017Z" fill="white"/>
<path d="M147.633 48.8634C146.069 48.8634 144.71 48.5443 143.557 47.9061C142.404 47.2679 141.508 46.3621 140.87 45.1886C140.232 43.9945 139.913 42.5945 139.913 40.9887C139.913 39.774 140.088 38.6932 140.438 37.7462C140.808 36.7786 141.333 35.9551 142.013 35.2757C142.692 34.5757 143.505 34.0507 144.452 33.7007C145.399 33.3302 146.46 33.1449 147.633 33.1449C149.198 33.1449 150.557 33.464 151.71 34.1022C152.862 34.7404 153.758 35.6463 154.396 36.8197C155.034 37.9932 155.354 39.3829 155.354 40.9887C155.354 42.2034 155.168 43.2945 154.798 44.2621C154.448 45.2297 153.933 46.0635 153.254 46.7635C152.574 47.4429 151.761 47.9679 150.814 48.3385C149.867 48.6884 148.807 48.8634 147.633 48.8634ZM147.633 45.9297C148.395 45.9297 149.064 45.7444 149.64 45.3739C150.217 45.0033 150.66 44.4577 150.968 43.7371C151.298 42.996 151.462 42.0798 151.462 40.9887C151.462 39.3417 151.112 38.1168 150.413 37.3138C149.713 36.4903 148.786 36.0786 147.633 36.0786C146.871 36.0786 146.202 36.2639 145.626 36.6345C145.049 36.9844 144.597 37.53 144.267 38.2712C143.958 38.9917 143.804 39.8976 143.804 40.9887C143.804 42.6151 144.154 43.8504 144.854 44.6945C145.554 45.518 146.48 45.9297 147.633 45.9297Z" fill="white"/>
<path d="M159.857 48.8017C159.219 48.8017 158.725 48.6267 158.375 48.2767C158.046 47.9061 157.881 47.4017 157.881 46.7635V28.7906C157.881 28.1318 158.056 27.6377 158.406 27.3083C158.756 26.9583 159.25 26.7833 159.888 26.7833H167.331C169.719 26.7833 171.561 27.3804 172.858 28.5744C174.155 29.7685 174.804 31.4361 174.804 33.5772C174.804 35.7183 174.155 37.3962 172.858 38.6109C171.561 39.8049 169.719 40.402 167.331 40.402H161.834V46.7635C161.834 47.4017 161.669 47.9061 161.34 48.2767C161.01 48.6267 160.516 48.8017 159.857 48.8017ZM161.834 37.283H166.713C168.113 37.283 169.173 36.9741 169.894 36.3565C170.614 35.7183 170.975 34.7919 170.975 33.5772C170.975 32.3625 170.614 31.4464 169.894 30.8288C169.173 30.2111 168.113 29.9023 166.713 29.9023H161.834V37.283Z" fill="white"/>
<path d="M178.219 48.5546C177.601 48.5546 177.128 48.3899 176.798 48.0605C176.469 47.7311 176.304 47.2576 176.304 46.64V35.1522C176.304 34.4934 176.469 34.0095 176.798 33.7007C177.148 33.3713 177.632 33.2066 178.25 33.2066C178.867 33.2066 179.341 33.3713 179.67 33.7007C179.999 34.0095 180.164 34.4934 180.164 35.1522V38.4564H184.148C186.145 38.4564 187.648 38.8785 188.657 39.7226C189.686 40.5667 190.201 41.8019 190.201 43.4283C190.201 44.4577 189.954 45.3636 189.459 46.1459C188.965 46.9076 188.265 47.5047 187.36 47.937C186.474 48.3487 185.404 48.5546 184.148 48.5546H178.219ZM180.164 46.0224H183.561C184.529 46.0224 185.28 45.8165 185.815 45.4047C186.351 44.9724 186.618 44.3239 186.618 43.4592C186.618 42.6151 186.351 41.9975 185.815 41.6063C185.28 41.1946 184.529 40.9887 183.561 40.9887H180.164V46.0224ZM193.937 48.8017C193.32 48.8017 192.846 48.637 192.517 48.3076C192.187 47.9576 192.023 47.4635 192.023 46.8253V35.1522C192.023 34.4934 192.187 34.0095 192.517 33.7007C192.846 33.3713 193.32 33.2066 193.937 33.2066C194.555 33.2066 195.028 33.3713 195.358 33.7007C195.708 34.0095 195.883 34.4934 195.883 35.1522V46.8253C195.883 48.1429 195.234 48.8017 193.937 48.8017Z" fill="white"/>
<path d="M206.116 48.8634C204.51 48.8634 203.11 48.534 201.916 47.8752C200.742 47.2164 199.837 46.2385 199.198 44.9415C198.56 43.6239 198.241 42.0078 198.241 40.0932V37.8388C198.241 35.8007 198.54 34.1022 199.137 32.7434C199.754 31.364 200.66 30.2626 201.854 29.4391C203.069 28.595 204.561 27.9568 206.332 27.5245L210.347 26.5363C210.882 26.3922 211.335 26.423 211.705 26.6289C212.076 26.8142 212.313 27.1642 212.416 27.6789C212.519 28.1936 212.436 28.6362 212.169 29.0068C211.901 29.3568 211.489 29.5935 210.933 29.717L206.61 30.7361C205.581 30.9832 204.716 31.3743 204.016 31.9096C203.316 32.4243 202.781 33.0728 202.41 33.8551C202.06 34.6375 201.885 35.5433 201.885 36.5727V38.2403H201.36C201.566 37.355 201.916 36.5624 202.41 35.8624C202.925 35.1624 203.584 34.6169 204.386 34.2257C205.189 33.814 206.126 33.6081 207.197 33.6081C208.452 33.6081 209.564 33.9169 210.532 34.5345C211.52 35.1316 212.292 35.9859 212.848 37.0977C213.404 38.2094 213.682 39.5373 213.682 41.0814C213.682 42.6666 213.363 44.046 212.724 45.2194C212.107 46.3723 211.232 47.2679 210.099 47.9061C208.967 48.5443 207.639 48.8634 206.116 48.8634ZM205.961 45.9297C206.785 45.9297 207.475 45.7547 208.03 45.4047C208.607 45.0342 209.039 44.4989 209.327 43.7989C209.636 43.0989 209.791 42.2446 209.791 41.2358C209.791 39.7329 209.451 38.58 208.772 37.7771C208.113 36.9536 207.176 36.5418 205.961 36.5418C205.158 36.5418 204.469 36.7271 203.892 37.0977C203.316 37.4477 202.873 37.9623 202.564 38.6417C202.276 39.3211 202.132 40.1343 202.132 41.0814C202.132 42.6666 202.462 43.871 203.12 44.6945C203.8 45.518 204.747 45.9297 205.961 45.9297Z" fill="white"/>
<path d="M217.939 48.5546C217.321 48.5546 216.847 48.3899 216.518 48.0605C216.189 47.7311 216.024 47.2576 216.024 46.64V35.1522C216.024 34.4934 216.189 34.0095 216.518 33.7007C216.868 33.3713 217.352 33.2066 217.969 33.2066C218.587 33.2066 219.061 33.3713 219.39 33.7007C219.719 34.0095 219.884 34.4934 219.884 35.1522V38.4564H223.868C225.865 38.4564 227.368 38.8785 228.376 39.7226C229.406 40.5667 229.92 41.8019 229.92 43.4283C229.92 44.4577 229.673 45.3636 229.179 46.1459C228.685 46.9076 227.985 47.5047 227.079 47.937C226.194 48.3487 225.124 48.5546 223.868 48.5546H217.939ZM219.884 46.0224H223.281C224.249 46.0224 225 45.8165 225.535 45.4047C226.071 44.9724 226.338 44.3239 226.338 43.4592C226.338 42.6151 226.071 41.9975 225.535 41.6063C225 41.1946 224.249 40.9887 223.281 40.9887H219.884V46.0224ZM233.657 48.8017C233.039 48.8017 232.566 48.637 232.237 48.3076C231.907 47.9576 231.742 47.4635 231.742 46.8253V35.1522C231.742 34.4934 231.907 34.0095 232.237 33.7007C232.566 33.3713 233.039 33.2066 233.657 33.2066C234.275 33.2066 234.748 33.3713 235.078 33.7007C235.428 34.0095 235.603 34.4934 235.603 35.1522V46.8253C235.603 48.1429 234.954 48.8017 233.657 48.8017Z" fill="white"/>
<path d="M117.08 68.9332C116.847 68.9332 116.668 68.87 116.542 68.7438C116.415 68.6175 116.352 68.433 116.352 68.1903V59.7417C116.352 59.4989 116.415 59.3144 116.542 59.1882C116.668 59.0619 116.843 58.9988 117.066 58.9988C117.299 58.9988 117.479 59.0619 117.605 59.1882C117.731 59.3144 117.794 59.4989 117.794 59.7417V61.009L117.634 60.7031C117.789 60.1787 118.095 59.7611 118.552 59.4504C119.008 59.1299 119.547 58.9697 120.169 58.9697C120.8 58.9697 121.348 59.1202 121.815 59.4212C122.29 59.7223 122.655 60.1447 122.907 60.6885C123.169 61.2323 123.3 61.8878 123.3 62.655C123.3 63.4027 123.169 64.0582 122.907 64.6215C122.655 65.175 122.295 65.6023 121.829 65.9033C121.363 66.1947 120.809 66.3403 120.169 66.3403C119.557 66.3403 119.023 66.1849 118.566 65.8742C118.11 65.5634 117.804 65.1507 117.649 64.636H117.823V68.1903C117.823 68.433 117.755 68.6175 117.619 68.7438C117.493 68.87 117.314 68.9332 117.08 68.9332ZM119.804 65.2041C120.212 65.2041 120.567 65.107 120.868 64.9128C121.169 64.7186 121.402 64.4321 121.567 64.0534C121.732 63.6747 121.815 63.2085 121.815 62.655C121.815 61.8199 121.63 61.1886 121.261 60.7614C120.902 60.3341 120.416 60.1204 119.804 60.1204C119.406 60.1204 119.052 60.2175 118.741 60.4118C118.44 60.5963 118.207 60.8779 118.042 61.2566C117.877 61.6353 117.794 62.1015 117.794 62.655C117.794 63.4804 117.979 64.1116 118.348 64.5486C118.717 64.9856 119.202 65.2041 119.804 65.2041Z" fill="#CCD2E3"/>
<path d="M128.046 66.3403C127.328 66.3403 126.706 66.1898 126.182 65.8888C125.667 65.5877 125.264 65.1604 124.973 64.6069C124.682 64.0534 124.536 63.4027 124.536 62.655C124.536 62.0821 124.618 61.5722 124.784 61.1255C124.949 60.6788 125.182 60.2952 125.483 59.9748C125.793 59.6446 126.162 59.397 126.59 59.2319C127.027 59.0571 127.512 58.9697 128.046 58.9697C128.755 58.9697 129.367 59.1202 129.882 59.4212C130.406 59.7223 130.814 60.1496 131.105 60.7031C131.397 61.2469 131.542 61.8975 131.542 62.655C131.542 63.2182 131.46 63.7281 131.295 64.1845C131.13 64.6409 130.892 65.0293 130.581 65.3498C130.28 65.6703 129.911 65.9179 129.474 66.0927C129.047 66.2578 128.571 66.3403 128.046 66.3403ZM128.046 65.2041C128.445 65.2041 128.794 65.107 129.095 64.9128C129.396 64.7186 129.629 64.4321 129.794 64.0534C129.969 63.6747 130.057 63.2085 130.057 62.655C130.057 61.8199 129.872 61.1886 129.503 60.7614C129.134 60.3341 128.648 60.1204 128.046 60.1204C127.639 60.1204 127.284 60.2175 126.983 60.4118C126.682 60.5963 126.444 60.8779 126.269 61.2566C126.104 61.6353 126.022 62.1015 126.022 62.655C126.022 63.4804 126.206 64.1116 126.575 64.5486C126.944 64.9856 127.435 65.2041 128.046 65.2041Z" fill="#CCD2E3"/>
<path d="M133.923 66.3112C133.69 66.3112 133.51 66.2481 133.384 66.1218C133.258 65.9859 133.195 65.8014 133.195 65.5683V56.5808C133.195 56.338 133.258 56.1535 133.384 56.0273C133.51 55.901 133.69 55.8379 133.923 55.8379C134.156 55.8379 134.336 55.901 134.462 56.0273C134.598 56.1535 134.666 56.338 134.666 56.5808V62.2034H134.695L137.419 59.4941C137.574 59.3387 137.715 59.2173 137.841 59.1299C137.968 59.0425 138.133 58.9988 138.337 58.9988C138.541 58.9988 138.696 59.0522 138.803 59.159C138.91 59.2659 138.963 59.397 138.963 59.5523C138.963 59.698 138.89 59.8485 138.744 60.0039L135.86 62.8589V62.1743L139.007 65.3061C139.162 65.4615 139.235 65.6168 139.225 65.7722C139.215 65.9276 139.152 66.0587 139.036 66.1655C138.919 66.2626 138.774 66.3112 138.599 66.3112C138.375 66.3112 138.196 66.2675 138.06 66.1801C137.934 66.0927 137.783 65.9616 137.608 65.7868L134.695 62.9609H134.666V65.5683C134.666 66.0636 134.418 66.3112 133.923 66.3112Z" fill="#CCD2E3"/>
<path d="M143.885 66.3403C143.108 66.3403 142.438 66.1947 141.875 65.9033C141.321 65.6023 140.889 65.1799 140.578 64.636C140.277 64.0825 140.127 63.427 140.127 62.6696C140.127 61.9315 140.277 61.2858 140.578 60.7322C140.879 60.1787 141.292 59.7466 141.816 59.4358C142.341 59.1251 142.938 58.9697 143.608 58.9697C144.103 58.9697 144.545 59.0522 144.933 59.2173C145.322 59.3727 145.652 59.6058 145.924 59.9165C146.206 60.2175 146.414 60.5866 146.55 61.0236C146.696 61.4605 146.769 61.951 146.769 62.4948C146.769 62.6599 146.72 62.7861 146.623 62.8735C146.526 62.9512 146.38 62.99 146.186 62.99H141.292V62.0869H145.778L145.531 62.2908C145.531 61.8053 145.458 61.3926 145.312 61.0527C145.176 60.7128 144.967 60.4555 144.686 60.2807C144.414 60.0962 144.074 60.0039 143.666 60.0039C143.21 60.0039 142.821 60.1107 142.501 60.3244C142.19 60.538 141.952 60.8342 141.787 61.2129C141.622 61.5916 141.54 62.0335 141.54 62.5385V62.6259C141.54 63.4804 141.739 64.1262 142.137 64.5632C142.545 64.9905 143.132 65.2041 143.899 65.2041C144.191 65.2041 144.497 65.1653 144.817 65.0876C145.147 65.0099 145.458 64.8788 145.749 64.6943C145.914 64.5972 146.06 64.5535 146.186 64.5632C146.322 64.5729 146.429 64.6166 146.507 64.6943C146.594 64.772 146.647 64.8691 146.667 64.9856C146.686 65.1022 146.667 65.2236 146.609 65.3498C146.55 65.4663 146.448 65.5732 146.303 65.6703C145.973 65.8936 145.589 66.0636 145.152 66.1801C144.715 66.2869 144.293 66.3403 143.885 66.3403Z" fill="#CCD2E3"/>
<path d="M149.039 62.9172C148.864 62.9172 148.718 62.8589 148.602 62.7424C148.485 62.6259 148.427 62.4851 148.427 62.32C148.427 62.1452 148.485 62.0044 148.602 61.8975C148.718 61.781 148.864 61.7227 149.039 61.7227H152.243C152.408 61.7227 152.549 61.781 152.666 61.8975C152.782 62.0044 152.841 62.1452 152.841 62.32C152.841 62.4851 152.782 62.6259 152.666 62.7424C152.549 62.8589 152.408 62.9172 152.243 62.9172H149.039Z" fill="#CCD2E3"/>
<path d="M155.531 66.3112C155.288 66.3112 155.104 66.2481 154.978 66.1218C154.851 65.9859 154.788 65.8014 154.788 65.5683V59.7417C154.788 59.4989 154.851 59.3144 154.978 59.1882C155.104 59.0619 155.279 58.9988 155.502 58.9988C155.735 58.9988 155.91 59.0619 156.026 59.1882C156.153 59.3144 156.216 59.4989 156.216 59.7417V60.8051H156.07C156.226 60.2224 156.512 59.7805 156.93 59.4795C157.347 59.1785 157.881 59.0037 158.532 58.9551C158.707 58.9454 158.843 58.9891 158.94 59.0862C159.047 59.1833 159.105 59.3338 159.115 59.5378C159.134 59.7417 159.09 59.9068 158.983 60.033C158.877 60.1496 158.712 60.2175 158.488 60.237L158.211 60.2661C157.58 60.3244 157.1 60.5234 156.769 60.8633C156.439 61.2032 156.274 61.6693 156.274 62.2617V65.5683C156.274 65.8014 156.211 65.9859 156.085 66.1218C155.968 66.2481 155.784 66.3112 155.531 66.3112Z" fill="#CCD2E3"/>
<path d="M163.211 66.3403C162.492 66.3403 161.871 66.1898 161.346 65.8888C160.832 65.5877 160.429 65.1604 160.137 64.6069C159.846 64.0534 159.7 63.4027 159.7 62.655C159.7 62.0821 159.783 61.5722 159.948 61.1255C160.113 60.6788 160.346 60.2952 160.647 59.9748C160.958 59.6446 161.327 59.397 161.754 59.2319C162.191 59.0571 162.677 58.9697 163.211 58.9697C163.92 58.9697 164.531 59.1202 165.046 59.4212C165.571 59.7223 165.978 60.1496 166.27 60.7031C166.561 61.2469 166.707 61.8975 166.707 62.655C166.707 63.2182 166.624 63.7281 166.459 64.1845C166.294 64.6409 166.056 65.0293 165.745 65.3498C165.444 65.6703 165.075 65.9179 164.638 66.0927C164.211 66.2578 163.735 66.3403 163.211 66.3403ZM163.211 65.2041C163.609 65.2041 163.959 65.107 164.26 64.9128C164.561 64.7186 164.794 64.4321 164.959 64.0534C165.134 63.6747 165.221 63.2085 165.221 62.655C165.221 61.8199 165.036 61.1886 164.667 60.7614C164.298 60.3341 163.813 60.1204 163.211 60.1204C162.803 60.1204 162.448 60.2175 162.147 60.4118C161.846 60.5963 161.608 60.8779 161.434 61.2566C161.269 61.6353 161.186 62.1015 161.186 62.655C161.186 63.4804 161.371 64.1116 161.74 64.5486C162.109 64.9856 162.599 65.2041 163.211 65.2041Z" fill="#CCD2E3"/>
<path d="M171.447 66.3403C170.728 66.3403 170.107 66.1898 169.583 65.8888C169.068 65.5877 168.665 65.1604 168.374 64.6069C168.082 64.0534 167.937 63.4027 167.937 62.655C167.937 62.0821 168.019 61.5722 168.184 61.1255C168.349 60.6788 168.582 60.2952 168.883 59.9748C169.194 59.6446 169.563 59.397 169.99 59.2319C170.427 59.0571 170.913 58.9697 171.447 58.9697C172.156 58.9697 172.768 59.1202 173.282 59.4212C173.807 59.7223 174.215 60.1496 174.506 60.7031C174.797 61.2469 174.943 61.8975 174.943 62.655C174.943 63.2182 174.861 63.7281 174.695 64.1845C174.53 64.6409 174.292 65.0293 173.982 65.3498C173.681 65.6703 173.312 65.9179 172.875 66.0927C172.447 66.2578 171.971 66.3403 171.447 66.3403ZM171.447 65.2041C171.845 65.2041 172.195 65.107 172.496 64.9128C172.797 64.7186 173.03 64.4321 173.195 64.0534C173.37 63.6747 173.457 63.2085 173.457 62.655C173.457 61.8199 173.273 61.1886 172.904 60.7614C172.535 60.3341 172.049 60.1204 171.447 60.1204C171.039 60.1204 170.685 60.2175 170.384 60.4118C170.083 60.5963 169.845 60.8779 169.67 61.2566C169.505 61.6353 169.422 62.1015 169.422 62.655C169.422 63.4804 169.607 64.1116 169.976 64.5486C170.345 64.9856 170.835 65.2041 171.447 65.2041Z" fill="#CCD2E3"/>
<path d="M177.353 66.3112C177.12 66.3112 176.94 66.2481 176.814 66.1218C176.688 65.9859 176.624 65.8014 176.624 65.5683V59.7417C176.624 59.4989 176.688 59.3144 176.814 59.1882C176.94 59.0619 177.115 58.9988 177.338 58.9988C177.571 58.9988 177.746 59.0619 177.863 59.1882C177.989 59.3144 178.052 59.4989 178.052 59.7417V60.9362L177.892 60.6157C178.086 60.101 178.387 59.698 178.795 59.4067C179.203 59.1153 179.693 58.9697 180.266 58.9697C180.858 58.9697 181.339 59.1105 181.708 59.3921C182.077 59.6737 182.33 60.1059 182.466 60.6885H182.262C182.446 60.1544 182.762 59.7368 183.209 59.4358C183.655 59.1251 184.175 58.9697 184.767 58.9697C185.311 58.9697 185.758 59.0765 186.107 59.2901C186.457 59.4941 186.719 59.8097 186.894 60.237C187.069 60.6545 187.156 61.1838 187.156 61.8247V65.5683C187.156 65.8014 187.088 65.9859 186.952 66.1218C186.826 66.2481 186.646 66.3112 186.413 66.3112C186.18 66.3112 186 66.2481 185.874 66.1218C185.748 65.9859 185.685 65.8014 185.685 65.5683V61.8975C185.685 61.2955 185.578 60.8536 185.364 60.572C185.16 60.2904 184.821 60.1496 184.345 60.1496C183.811 60.1496 183.388 60.3341 183.077 60.7031C182.767 61.0721 182.611 61.5819 182.611 62.2326V65.5683C182.611 65.8014 182.548 65.9859 182.422 66.1218C182.296 66.2481 182.116 66.3112 181.883 66.3112C181.65 66.3112 181.465 66.2481 181.329 66.1218C181.203 65.9859 181.14 65.8014 181.14 65.5683V61.8975C181.14 61.2955 181.038 60.8536 180.834 60.572C180.63 60.2904 180.29 60.1496 179.815 60.1496C179.28 60.1496 178.858 60.3341 178.547 60.7031C178.246 61.0721 178.096 61.5819 178.096 62.2326V65.5683C178.096 66.0636 177.848 66.3112 177.353 66.3112Z" fill="#CCD2E3"/>
</g>
<defs>
<clipPath id="clip0_25_1318">
<rect width="235.896" height="70" fill="white"/>
</clipPath>
</defs>
</svg>
