<svg width="522" height="70" viewBox="0 0 522 70" fill="none" xmlns="http://www.w3.org/2000/svg">
<path d="M5.57767 69.8071C3.78256 69.8071 2.40417 69.2928 1.4425 68.2642C0.480834 67.2355 0 65.8212 0 64.0211V6.06402C0 4.19962 0.512889 2.78525 1.53867 1.82091C2.56445 0.792274 3.97489 0.277956 5.77001 0.277956C7.37279 0.277956 8.62295 0.599406 9.52051 1.2423C10.4822 1.82091 11.3477 2.84954 12.117 4.3282L35.8702 48.3987H32.7929L56.5461 4.3282C57.3154 2.84954 58.1488 1.82091 59.0464 1.2423C59.944 0.599406 61.1941 0.277956 62.7969 0.277956C64.592 0.277956 65.9704 0.792274 66.9321 1.82091C67.8937 2.78525 68.3746 4.19962 68.3746 6.06402V64.0211C68.3746 65.8212 67.8937 67.2355 66.9321 68.2642C66.0345 69.2928 64.6561 69.8071 62.7969 69.8071C61.0018 69.8071 59.6234 69.2928 58.6617 68.2642C57.7001 67.2355 57.2192 65.8212 57.2192 64.0211V19.372H59.3349L39.1399 56.3063C38.4988 57.3992 37.8256 58.2029 37.1204 58.7172C36.4152 59.2315 35.4535 59.4887 34.2354 59.4887C33.0173 59.4887 32.0235 59.2315 31.2542 58.7172C30.4849 58.1386 29.8117 57.335 29.2347 56.3063L8.84734 19.2755H11.1553V64.0211C11.1553 65.8212 10.6745 67.2355 9.71284 68.2642C8.81529 69.2928 7.4369 69.8071 5.57767 69.8071Z" fill="white"/>
<path d="M84.931 69.8071C83.0077 69.8071 81.5011 69.2928 80.4112 68.2642C79.3854 67.1713 78.8725 65.6283 78.8725 63.6353V27.1831C78.8725 25.1259 79.3854 23.6151 80.4112 22.6507C81.5011 21.6221 83.0077 21.1078 84.931 21.1078C86.8544 21.1078 88.3289 21.6221 89.3547 22.6507C90.3805 23.6151 90.8934 25.1259 90.8934 27.1831V40.1054H111.665V27.1831C111.665 25.1259 112.178 23.6151 113.204 22.6507C114.23 21.6221 115.704 21.1078 117.628 21.1078C119.551 21.1078 121.026 21.6221 122.051 22.6507C123.141 23.6151 123.686 25.1259 123.686 27.1831V63.6353C123.686 65.6283 123.141 67.1713 122.051 68.2642C121.026 69.2928 119.551 69.8071 117.628 69.8071C115.704 69.8071 114.23 69.2928 113.204 68.2642C112.178 67.1713 111.665 65.6283 111.665 63.6353V49.5559H90.8934V63.6353C90.8934 65.6283 90.3805 67.1713 89.3547 68.2642C88.393 69.2928 86.9185 69.8071 84.931 69.8071Z" fill="white"/>
<path d="M155.075 70C150.202 70 145.971 69.0035 142.381 67.0105C138.791 65.0176 136.002 62.1888 134.014 58.5243C132.027 54.7955 131.033 50.4238 131.033 45.4092C131.033 41.6161 131.578 38.241 132.668 35.2836C133.822 32.262 135.457 29.6904 137.573 27.5689C139.688 25.383 142.221 23.7437 145.17 22.6507C148.119 21.4935 151.421 20.9149 155.075 20.9149C159.947 20.9149 164.179 21.9114 167.769 23.9044C171.359 25.8974 174.148 28.7261 176.135 32.3906C178.123 36.0551 179.117 40.3946 179.117 45.4092C179.117 49.2023 178.54 52.6097 177.386 55.6313C176.296 58.6529 174.693 61.2566 172.577 63.4425C170.462 65.564 167.929 67.2034 164.98 68.3606C162.031 69.4535 158.729 70 155.075 70ZM155.075 60.8387C157.447 60.8387 159.531 60.2601 161.326 59.1029C163.121 57.9457 164.499 56.242 165.461 53.9919C166.487 51.6775 167 48.8166 167 45.4092C167 40.2661 165.91 36.4408 163.73 33.9335C161.55 31.362 158.665 30.0762 155.075 30.0762C152.703 30.0762 150.619 30.6548 148.824 31.812C147.029 32.9049 145.619 34.6086 144.593 36.923C143.631 39.1731 143.15 42.0019 143.15 45.4092C143.15 50.4881 144.24 54.3455 146.42 56.9814C148.6 59.5529 151.485 60.8387 155.075 60.8387Z" fill="white"/>
<path d="M192.469 69.8071C190.545 69.8071 189.039 69.2607 187.949 68.1677C186.923 67.0748 186.41 65.5319 186.41 63.5389V28.6297C186.41 26.4438 186.987 24.7723 188.141 23.6151C189.295 22.4579 190.962 21.8793 193.142 21.8793H217.664C219.395 21.8793 220.678 22.265 221.511 23.0365C222.345 23.8079 222.761 24.9973 222.761 26.6045C222.761 28.1475 222.345 29.3368 221.511 30.1726C220.678 30.9441 219.395 31.3298 217.664 31.3298H198.431V63.5389C198.431 67.7177 196.444 69.8071 192.469 69.8071Z" fill="white"/>
<path d="M248.056 70C243.184 70 238.952 69.0035 235.362 67.0105C231.772 65.0176 228.983 62.1888 226.996 58.5243C225.008 54.7955 224.014 50.4238 224.014 45.4092C224.014 41.6161 224.559 38.241 225.649 35.2836C226.803 32.262 228.438 29.6904 230.554 27.5689C232.669 25.383 235.202 23.7437 238.151 22.6507C241.1 21.4935 244.402 20.9149 248.056 20.9149C252.929 20.9149 257.16 21.9114 260.75 23.9044C264.34 25.8974 267.129 28.7261 269.117 32.3906C271.104 36.0551 272.098 40.3946 272.098 45.4092C272.098 49.2023 271.521 52.6097 270.367 55.6313C269.277 58.6529 267.674 61.2566 265.559 63.4425C263.443 65.564 260.91 67.2034 257.961 68.3606C255.012 69.4535 251.711 70 248.056 70ZM248.056 60.8387C250.428 60.8387 252.512 60.2601 254.307 59.1029C256.102 57.9457 257.481 56.242 258.442 53.9919C259.468 51.6775 259.981 48.8166 259.981 45.4092C259.981 40.2661 258.891 36.4408 256.711 33.9335C254.531 31.362 251.646 30.0762 248.056 30.0762C245.684 30.0762 243.6 30.6548 241.805 31.812C240.01 32.9049 238.6 34.6086 237.574 36.923C236.612 39.1731 236.132 42.0019 236.132 45.4092C236.132 50.4881 237.221 54.3455 239.401 56.9814C241.581 59.5529 244.466 60.8387 248.056 60.8387Z" fill="white"/>
<path d="M286.123 69.8071C284.136 69.8071 282.597 69.2607 281.507 68.1677C280.481 67.0105 279.969 65.4354 279.969 63.4425V7.31767C279.969 5.2604 280.513 3.71745 281.603 2.68882C282.693 1.59589 284.232 1.04943 286.219 1.04943H309.396C316.832 1.04943 322.57 2.91383 326.609 6.64263C330.648 10.3714 332.668 15.5789 332.668 22.265C332.668 28.9511 330.648 34.1907 326.609 37.9838C322.57 41.7126 316.832 43.577 309.396 43.577H292.278V63.4425C292.278 65.4354 291.765 67.0105 290.739 68.1677C289.713 69.2607 288.175 69.8071 286.123 69.8071ZM292.278 33.8371H307.472C311.832 33.8371 315.134 32.8728 317.377 30.9441C319.621 28.9511 320.743 26.0581 320.743 22.265C320.743 18.4719 319.621 15.611 317.377 13.6823C315.134 11.7536 311.832 10.7893 307.472 10.7893H292.278V33.8371Z" fill="white"/>
<path d="M343.302 69.0357C341.379 69.0357 339.904 68.5213 338.878 67.4927C337.852 66.4641 337.34 64.9854 337.34 63.0567V27.1831C337.34 25.1259 337.852 23.6151 338.878 22.6507C339.968 21.6221 341.475 21.1078 343.398 21.1078C345.321 21.1078 346.796 21.6221 347.822 22.6507C348.847 23.6151 349.36 25.1259 349.36 27.1831V37.5016H361.766C367.985 37.5016 372.665 38.8196 375.806 41.4554C379.012 44.0913 380.615 47.9487 380.615 53.0276C380.615 56.242 379.845 59.0708 378.307 61.5138C376.768 63.8925 374.588 65.7569 371.767 67.107C369.01 68.3928 365.677 69.0357 361.766 69.0357H343.302ZM349.36 61.128H359.939C362.952 61.128 365.292 60.4851 366.959 59.1994C368.626 57.8493 369.459 55.8242 369.459 53.124C369.459 50.4881 368.626 48.5594 366.959 47.3379C365.292 46.0521 362.952 45.4092 359.939 45.4092H349.36V61.128ZM392.251 69.8071C390.327 69.8071 388.853 69.2928 387.827 68.2642C386.801 67.1713 386.288 65.6283 386.288 63.6353V27.1831C386.288 25.1259 386.801 23.6151 387.827 22.6507C388.853 21.6221 390.327 21.1078 392.251 21.1078C394.174 21.1078 395.649 21.6221 396.674 22.6507C397.764 23.6151 398.309 25.1259 398.309 27.1831V63.6353C398.309 67.7499 396.29 69.8071 392.251 69.8071Z" fill="white"/>
<path d="M430.176 70C425.175 70 420.816 68.9714 417.097 66.9141C413.443 64.8568 410.622 61.8031 408.634 57.7528C406.647 53.6383 405.653 48.5916 405.653 42.6126V35.5729C405.653 29.2083 406.583 23.9044 408.442 19.6613C410.365 15.3539 413.186 11.9144 416.905 9.34279C420.687 6.70692 425.335 4.71394 430.849 3.36386L443.351 0.277956C445.018 -0.172069 446.428 -0.0756339 447.582 0.567261C448.736 1.14587 449.473 2.23879 449.794 3.84603C450.114 5.45327 449.858 6.8355 449.024 7.99271C448.191 9.08563 446.909 9.82496 445.178 10.2107L431.714 13.393C428.509 14.1645 425.816 15.386 423.636 17.0575C421.457 18.6648 419.79 20.6899 418.636 23.1329C417.546 25.5759 417.001 28.4046 417.001 31.6191V36.8266H415.366C416.007 34.0621 417.097 31.587 418.636 29.4011C420.239 27.2153 422.29 25.5116 424.79 24.2901C427.291 23.0043 430.208 22.3614 433.542 22.3614C437.452 22.3614 440.914 23.3258 443.928 25.2545C447.005 27.1189 449.409 29.7869 451.14 33.2585C452.871 36.7301 453.737 40.8768 453.737 45.6985C453.737 50.6488 452.743 54.9562 450.755 58.6207C448.832 62.221 446.107 65.0176 442.581 67.0105C439.055 69.0035 434.92 70 430.176 70ZM429.695 60.8387C432.259 60.8387 434.407 60.2923 436.138 59.1994C437.933 58.0421 439.28 56.3706 440.177 54.1848C441.139 51.9989 441.62 49.3309 441.62 46.1807C441.62 41.4876 440.562 37.8874 438.446 35.3801C436.395 32.8085 433.477 31.5227 429.695 31.5227C427.195 31.5227 425.047 32.1013 423.252 33.2585C421.457 34.3514 420.078 35.9587 419.117 38.0802C418.219 40.2018 417.77 42.7412 417.77 45.6985C417.77 50.6488 418.796 54.4098 420.848 56.9814C422.963 59.5529 425.912 60.8387 429.695 60.8387Z" fill="white"/>
<path d="M466.993 69.0357C465.069 69.0357 463.595 68.5213 462.569 67.4927C461.543 66.4641 461.03 64.9854 461.03 63.0567V27.1831C461.03 25.1259 461.543 23.6151 462.569 22.6507C463.659 21.6221 465.165 21.1078 467.089 21.1078C469.012 21.1078 470.487 21.6221 471.512 22.6507C472.538 23.6151 473.051 25.1259 473.051 27.1831V37.5016H485.457C491.675 37.5016 496.356 38.8196 499.497 41.4554C502.703 44.0913 504.305 47.9487 504.305 53.0276C504.305 56.242 503.536 59.0708 501.997 61.5138C500.459 63.8925 498.279 65.7569 495.458 67.107C492.701 68.3928 489.367 69.0357 485.457 69.0357H466.993ZM473.051 61.128H483.629C486.643 61.128 488.983 60.4851 490.65 59.1994C492.317 57.8493 493.15 55.8242 493.15 53.124C493.15 50.4881 492.317 48.5594 490.65 47.3379C488.983 46.0521 486.643 45.4092 483.629 45.4092H473.051V61.128ZM515.941 69.8071C514.018 69.8071 512.544 69.2928 511.518 68.2642C510.492 67.1713 509.979 65.6283 509.979 63.6353V27.1831C509.979 25.1259 510.492 23.6151 511.518 22.6507C512.544 21.6221 514.018 21.1078 515.941 21.1078C517.865 21.1078 519.339 21.6221 520.365 22.6507C521.455 23.6151 522 25.1259 522 27.1831V63.6353C522 67.7499 519.98 69.8071 515.941 69.8071Z" fill="white"/>
</svg>
