<svg width="50" height="50" viewBox="0 0 50 50" fill="none" xmlns="http://www.w3.org/2000/svg">
<g clip-path="url(#clip0_240_13257)">
<path fill-rule="evenodd" clip-rule="evenodd" d="M37.6953 36.328V28.5156C37.6953 26.2218 37.0788 24.0652 36.0034 22.203L35.8289 22.3044L34.0087 23.6358L31.0058 21.4392L28.0029 23.6358L25 21.4392L21.9971 23.6358L18.9942 21.4392L15.9912 23.6358L14.1711 22.3044L13.8976 22.3778C12.8834 24.1996 12.3047 26.2933 12.3047 28.5156V36.3281C12.3047 38.205 12.7175 39.99 13.4567 41.5971L13.7596 41.772L15.9912 43.4045L18.9942 41.2079L21.9971 43.4045L25 41.2079L28.0029 43.4045L31.0058 41.2079L34.0087 43.4045L36.2404 41.772L36.5433 41.5971C37.2825 39.99 37.6953 38.2049 37.6953 36.328Z" fill="#FFD600"/>
<path d="M33.0286 17.4556L36.3211 7.24997C36.4437 6.87009 36.3228 6.45398 36.0158 6.1989C35.7087 5.94402 35.2774 5.90154 34.9265 6.09158C33.4041 6.91677 31.6481 8.37253 29.9714 10.1713L30.4316 1.02558C30.4516 0.626952 30.2271 0.256251 29.8645 0.0894545C29.502 -0.0773418 29.0744 -0.00693188 28.7846 0.267676C27.4865 1.49746 26.1327 3.48505 25.0008 5.78601C23.8317 3.40516 22.4717 1.458 21.2153 0.267676C20.9255 -0.00693188 20.4979 -0.0773418 20.1354 0.0894545C19.7728 0.256251 19.5482 0.62705 19.5683 1.02568L20.0285 10.1713C18.3517 8.37263 16.5958 6.91677 15.0733 6.09168C14.7223 5.90154 14.2911 5.94383 13.984 6.1991C13.677 6.45408 13.5561 6.87029 13.6787 7.25017L16.9713 17.4557C10.1804 22.5448 11.4006 28.7942 11.3282 36.3283C11.3281 43.8669 17.4612 50.0001 25 50.0001C32.5385 50.0001 38.6717 43.8669 38.6717 36.3283C38.6 28.7985 39.8173 22.5389 33.0286 17.4556ZM13.2813 29.453L15.4147 31.0136C15.7582 31.2646 16.2244 31.2646 16.5679 31.0136L18.9943 29.2388L21.4206 31.0136C21.7642 31.2646 22.2303 31.2646 22.5738 31.0136L25.0002 29.2388L27.4266 31.0136C27.7701 31.2646 28.2362 31.2646 28.5798 31.0136L31.0061 29.2388L33.4325 31.0136C33.6043 31.1391 33.8066 31.2019 34.009 31.2019C34.2115 31.2019 34.4139 31.1391 34.5856 31.0136L36.719 29.4531V33.6867C36.6906 33.5877 34.1075 35.552 34.009 35.6049L31.5827 33.8301C31.2391 33.579 30.773 33.579 30.4295 33.8301L28.0031 35.6049L25.5768 33.8301C25.2332 33.579 24.7671 33.579 24.4235 33.8301L21.9972 35.6049L19.5708 33.8301C19.2273 33.579 18.7612 33.579 18.4176 33.8301L15.9912 35.6049C15.8839 35.5465 13.3203 33.5939 13.2813 33.6867V29.453ZM33.5695 9.41813L31.3191 16.3938C30.7965 16.1203 30.254 15.8794 29.6945 15.6743L29.8114 13.3522C31.015 11.832 32.32 10.4723 33.5695 9.41813ZM28.3322 3.88309L27.7805 14.8474C27.4774 12.5283 26.8536 10.2563 26.0527 8.18923C26.7197 6.59441 27.51 5.10975 28.3322 3.88309ZM25.8126 14.8677C24.6175 14.7956 23.3796 14.8867 22.2335 15.125L21.6688 3.90477C23.3915 6.4863 25.1978 10.4784 25.8126 14.8677ZM16.4305 9.41803C17.6799 10.4721 18.985 11.832 20.1888 13.352L20.3057 15.6742C19.7462 15.8793 19.2037 16.1202 18.6811 16.3937L16.4305 9.41803ZM25 16.7969C30.992 16.7968 35.9479 21.3173 36.6369 27.1269C36.6422 27.0573 34.0639 28.9864 34.0088 29.0154L31.5824 27.2406C31.2388 26.9895 30.7727 26.9895 30.4292 27.2406L28.0028 29.0154L25.5765 27.2406C25.2329 26.9895 24.7668 26.9895 24.4232 27.2406L21.9969 29.0154L19.5705 27.2406C19.227 26.9895 18.7609 26.9895 18.4173 27.2406L15.991 29.0154C15.9746 29.0151 13.2816 27.0019 13.3628 27.1269C14.052 21.3173 19.008 16.7969 25 16.7969ZM25 48.0468C18.4341 48.056 13.1239 42.6016 13.2813 36.0425L15.4147 37.603C15.7582 37.8542 16.2244 37.8542 16.5679 37.603L18.9943 35.8282L21.4206 37.603C21.7642 37.8542 22.2303 37.8542 22.5738 37.603L25.0002 35.8282L27.4266 37.603C27.7701 37.8542 28.2362 37.8542 28.5798 37.603L31.0061 35.8282L33.4325 37.603C33.6043 37.7286 33.8066 37.7914 34.009 37.7914C34.2115 37.7914 34.4139 37.7286 34.5856 37.603L36.719 36.0425C36.876 42.6017 31.5658 48.056 25 48.0468Z" fill="#31688F"/>
</g>
<defs>
<clipPath id="clip0_240_13257">
<rect width="50" height="50" fill="white"/>
</clipPath>
</defs>
</svg>
