<svg width="50" height="50" viewBox="0 0 50 50" fill="none" xmlns="http://www.w3.org/2000/svg">
<path d="M27.7588 21.3273C28.1373 21.3273 28.4976 21.1058 28.6566 20.736L36.5117 2.45369C36.7246 1.95818 36.4955 1.38386 36 1.17088C35.5043 0.957985 34.9302 1.18699 34.7172 1.68259L26.862 19.965C26.5842 20.6116 27.0624 21.3273 27.7588 21.3273Z" fill="#31688F"/>
<path d="M24.2812 28.3215H28.6963C28.2351 26.634 28.4188 24.7824 29.3301 23.1564C29.4623 22.9206 29.6192 22.6735 29.7967 22.4193C29.1289 19.8605 26.537 17.2011 26.1808 16.8448L25.4902 16.1543L24.7997 16.8448C24.688 16.9566 22.4124 19.2599 21.5337 22.0732C21.8719 22.8423 24.0515 27.7988 24.2812 28.3215Z" fill="#FFD600"/>
<path d="M4.94336 28.3215H45.0566C45.0566 30.0139 44.8369 31.6565 44.4248 33.2239H5.5752C5.16309 31.6565 4.94336 30.0139 4.94336 28.3215Z" fill="#FFD600"/>
<path d="M24.5098 38.1272C29.2637 38.1272 33.2988 41.2014 34.7344 45.4709C28.4371 48.8959 20.6464 48.7546 14.4541 45.0061V45.0051C16.0205 40.9807 19.9307 38.1272 24.5098 38.1272Z" fill="#FFD600"/>
<path d="M17.5605 27.345C17.3193 25.9095 16.5576 24.6497 15.4756 23.7659L14.8885 22.4206L13.2107 22.6223C13.073 22.5871 12.9344 22.5574 12.793 22.5316L11.7391 21.9019L10.8213 22.517C10.0684 22.6391 9.3623 22.9037 8.7334 23.2846L7.36084 23.1083L7.25195 24.5561C6.59668 25.3393 6.14063 26.2953 5.96484 27.3451C5.91113 27.6625 5.88379 27.9887 5.88379 28.3217H17.6416C17.6416 27.9886 17.6143 27.6624 17.5605 27.345Z" fill="#FFD600"/>
<path d="M49.0234 46.9552H33.9473C41.0293 43.6994 46.0332 36.5988 46.0332 28.3214C46.0332 27.7824 45.5957 27.3449 45.0566 27.3449H43.332C44.5146 23.1212 44.707 17.1652 41.5479 15.3966C39.8662 14.4533 37.458 14.8712 34.7178 16.5646L40.1152 4.0021C40.3281 3.50601 40.0986 2.93179 39.6035 2.7189C39.1074 2.50601 38.5332 2.7355 38.3203 3.23062L31.5449 19.0011C30.2353 20.213 29.1211 21.5324 28.4785 22.6789C27.6992 24.0685 27.3389 25.6896 27.5195 27.3449H24.9189L21.6768 19.9728C21.46 19.4796 20.8838 19.255 20.3906 19.4728L18.6924 20.2189C18.4707 18.4181 17.3955 16.9904 15.8428 16.6388C14.4834 16.3302 13.0566 16.9445 12.0625 18.1789C9.36816 15.9396 6.03418 17.1906 5.77539 20.3752C5.6543 21.8703 6.25195 23.4142 7.25195 24.5558C7.6709 24.0539 8.1709 23.6232 8.7334 23.2843C7.53223 21.9269 7.34961 19.8722 8.41699 19.1994C9.13965 18.7433 10.2539 19.0773 11.1074 19.9523C10.8281 20.7873 10.7314 21.675 10.8213 22.5168C11.1279 22.4669 11.4424 22.4416 11.7627 22.4416C12.1143 22.4416 12.459 22.4728 12.793 22.5314C12.6631 21.7912 12.7627 20.9464 13.1172 20.1671C13.6318 19.0412 14.5967 18.3586 15.4111 18.5431C16.2549 18.7345 16.8145 19.8127 16.7783 21.0607L13.2197 22.6242C14.0576 22.839 14.8252 23.2335 15.4756 23.7658C17.1816 23.0168 19.3711 22.0539 20.2822 21.6535L22.7852 27.3449H4.94336C4.4043 27.3449 3.9668 27.7824 3.9668 28.3214C3.9668 36.4259 8.75293 43.5978 16.0498 46.9552H0.976562C0.4375 46.9552 0 47.3927 0 47.9318C0 48.4718 0.4375 48.9084 0.976562 48.9084H49.0234C49.5625 48.9084 50 48.4718 50 47.9318C50 47.3927 49.5625 46.9552 49.0234 46.9552ZM30.1816 23.6339C31.9033 20.5627 38.0137 15.6535 40.5928 17.0998C42.5625 18.2033 42.5645 23.3371 41.2959 27.3449H39.1455C39.5107 25.6671 38.7422 23.9406 37.2334 23.0939C35.3486 22.0373 32.9561 22.7111 31.8994 24.5968C31.4199 25.4513 31.2881 26.4289 31.4883 27.3449H29.4883C29.2988 26.0421 29.5576 24.7472 30.1816 23.6339ZM37.0977 27.3449H33.5371C33.2715 26.7794 33.2891 26.1125 33.6035 25.5509C34.1328 24.6056 35.333 24.2677 36.2783 24.798C37.1748 25.3009 37.5342 26.4113 37.0977 27.3449ZM5.94629 29.298H44.0537C43.5312 39.1564 35.1797 46.9552 25 46.9552C14.8857 46.9552 6.47363 39.2433 5.94629 29.298Z" fill="#31688F"/>
</svg>
