<svg width="24" height="24" viewBox="0 0 24 24" fill="none" xmlns="http://www.w3.org/2000/svg">
<path d="M8 12L8 8C8 5.79086 9.79086 4 12 4V4C14.2091 4 16 5.79086 16 8L16 12" stroke="#414042" stroke-width="2" stroke-linecap="round"/>
<path d="M3.35092 20.6771L4.0868 20L3.35092 20.6771ZM20.8195 18.8339L19.8229 18.917L20.8195 18.8339ZM20.6491 20.6771L21.385 21.3542L20.6491 20.6771ZM19.514 9.52824L20.1911 8.79235L19.514 9.52824ZM4.48605 9.52824L3.80894 8.79235L4.48605 9.52824ZM7.68053 10H16.3195V8H7.68053V10ZM19.3091 12.7509L19.8229 18.917L21.816 18.7509L21.3022 12.5848L19.3091 12.7509ZM18.8264 20H5.1736V22H18.8264V20ZM4.17705 18.917L4.69089 12.7509L2.6978 12.5848L2.18396 18.7509L4.17705 18.917ZM5.1736 20C4.63561 20 4.33626 19.9977 4.12947 19.9691C3.95125 19.9444 4.01359 19.9204 4.0868 20L2.61503 21.3542C2.98535 21.7567 3.4505 21.8941 3.85508 21.9502C4.23109 22.0023 4.69454 22 5.1736 22V20ZM2.18396 18.7509C2.14418 19.2283 2.10344 19.6899 2.12411 20.069C2.14636 20.4768 2.24472 20.9518 2.61503 21.3542L4.0868 20C4.16001 20.0796 4.13094 20.1397 4.12114 19.96C4.10977 19.7516 4.13238 19.4531 4.17705 18.917L2.18396 18.7509ZM19.8229 18.917C19.8676 19.4531 19.8902 19.7516 19.8789 19.96C19.8691 20.1397 19.84 20.0796 19.9132 20L21.385 21.3542C21.7553 20.9518 21.8536 20.4768 21.8759 20.069C21.8966 19.6899 21.8558 19.2283 21.816 18.7509L19.8229 18.917ZM18.8264 22C19.3055 22 19.7689 22.0023 20.1449 21.9502C20.5495 21.8941 21.0147 21.7567 21.385 21.3542L19.9132 20C19.9864 19.9204 20.0487 19.9444 19.8705 19.9691C19.6637 19.9977 19.3644 20 18.8264 20V22ZM16.3195 10C17.2199 10 17.7986 10.002 18.2278 10.0577C18.6285 10.1097 18.7607 10.194 18.8368 10.2641L20.1911 8.79235C19.6931 8.3342 19.1015 8.15438 18.4853 8.07436C17.8975 7.99803 17.1659 8 16.3195 8V10ZM21.3022 12.5848C21.2319 11.7412 21.1731 11.012 21.0482 10.4326C20.9173 9.82513 20.689 9.25051 20.1911 8.79235L18.8368 10.2641C18.913 10.3342 19.008 10.4589 19.0931 10.854C19.1843 11.277 19.2343 11.8535 19.3091 12.7509L21.3022 12.5848ZM7.68053 8C6.83406 8 6.10251 7.99803 5.5147 8.07436C4.89846 8.15438 4.30686 8.3342 3.80894 8.79235L5.16316 10.2641C5.23932 10.194 5.3715 10.1097 5.77224 10.0577C6.20142 10.002 6.78007 10 7.68053 10V8ZM4.69089 12.7509C4.76567 11.8535 4.81569 11.277 4.90687 10.854C4.99201 10.4589 5.08699 10.3342 5.16316 10.2641L3.80894 8.79235C3.31102 9.25051 3.08268 9.82513 2.95176 10.4326C2.82688 11.012 2.7681 11.7412 2.6978 12.5848L4.69089 12.7509Z" fill="#414042"/>
</svg>
