<svg width="50" height="50" viewBox="0 0 50 50" fill="none" xmlns="http://www.w3.org/2000/svg">
<g clip-path="url(#clip0_240_13173)">
<path d="M11.8411 26.7922L3.92224 19.6973V35.1633L11.8411 28.0683C11.3565 27.6698 11.0897 27.4303 11.0897 27.4303C11.0897 27.4303 11.3565 27.1906 11.8411 26.7922Z" fill="#FFD600"/>
<path d="M30.3926 18.6263V36.2338C29.0557 36.2898 28.0115 36.2476 26.4707 35.9008V18.9594C28.0192 18.6108 29.066 18.5707 30.3926 18.6263Z" fill="#FFD600"/>
<path d="M10.3816 39.5544L11.0721 38.8639C12.9866 36.9495 16.0853 36.9492 18 38.8639C19.9143 40.7782 19.9147 43.8771 17.9999 45.7918L17.3093 46.4822L10.3816 39.5544Z" fill="#FFD600"/>
<path d="M38.8639 45.792C37.9386 44.8667 37.429 43.6365 37.429 42.3279C37.429 39.6207 39.62 37.4292 42.3278 37.4292C43.6363 37.4292 44.8664 37.9388 45.7917 38.864L46.4823 39.5545L39.5544 46.4823L38.8639 45.792Z" fill="#FFD600"/>
<path d="M46.9642 13.7278H3.03582C1.3619 13.7278 9.15527e-05 15.0896 9.15527e-05 16.7635V46.9643C9.15527e-05 48.6382 1.3619 50 3.03582 50H46.9642C48.6381 50 49.9999 48.6382 49.9999 46.9643V16.7635C49.9999 15.0896 48.6381 13.7278 46.9642 13.7278ZM1.95321 46.9642V42.5213C3.49393 41.2553 5.78073 41.3413 7.21959 42.7803C8.65846 44.2192 8.74459 46.506 7.47858 48.0468H3.03582C2.43885 48.0468 1.95321 47.5612 1.95321 46.9642ZM24.6288 48.0468C25.0641 46.3528 26.6041 45.0972 28.4319 45.0972C30.2597 45.0972 31.7998 46.3528 32.235 48.0468H24.6288ZM48.0468 46.9642C48.0468 47.5611 47.5611 48.0468 46.9642 48.0468H34.2286C33.7619 45.2684 31.341 43.1441 28.432 43.1441C25.5229 43.1441 23.1021 45.2684 22.6354 48.0468H9.76929C10.7846 45.8696 10.3953 43.194 8.60064 41.3993C6.80602 39.6047 4.13045 39.2155 1.95321 40.2307V16.7635C1.95321 16.1665 2.43885 15.6809 3.03582 15.6809H46.9642C47.5611 15.6809 48.0468 16.1665 48.0468 16.7635V46.9642Z" fill="#31688F"/>
<path d="M18.152 21.3335C13.7002 23.8088 10.5679 26.6074 10.4369 26.7253C10.0059 27.1128 10.0052 27.7894 10.4369 28.1776C10.568 28.2956 13.7002 31.0943 18.152 33.5697C18.8002 33.93 19.6031 33.4611 19.6031 32.7162V22.1871C19.6031 21.4437 18.8022 20.9716 18.152 21.3335ZM17.65 31.0161C15.3996 29.642 13.6022 28.2622 12.6047 27.4512C13.601 26.6409 15.3963 25.2626 17.65 23.887V31.0161Z" fill="#31688F"/>
<path d="M34.5111 18.1715C33.9067 18.0478 33.3386 18.5098 33.3386 19.1282V35.7751C33.3386 36.3931 33.9053 36.8553 34.5111 36.7318C39.5186 35.7063 46.0778 32.5571 46.0778 27.4517C46.0778 22.3471 39.5207 19.1972 34.5111 18.1715ZM35.2917 34.547V20.3562C40.4753 21.6979 44.1247 24.582 44.1247 27.4516C44.1247 30.321 40.4752 33.2052 35.2917 34.547Z" fill="#31688F"/>
<path d="M38.2369 24.5137C37.704 24.5137 37.2607 24.9474 37.2607 25.4898C37.2607 26.0351 37.7054 26.467 38.2369 26.467C38.7743 26.467 39.2139 26.03 39.2139 25.4898C39.2138 24.9556 38.7788 24.5137 38.2369 24.5137Z" fill="#31688F"/>
<path d="M30.4337 17.6719C28.173 17.5768 25.8284 17.8367 22.1723 19.3646C21.8089 19.5165 21.5723 19.8718 21.5723 20.2657V34.6379C21.5723 35.0317 21.8089 35.3871 22.1723 35.539C25.847 37.0746 28.1944 37.3242 30.4334 37.2307C30.9564 37.2089 31.3691 36.7785 31.3691 36.2551V18.6476C31.3691 18.1242 30.9565 17.6939 30.4337 17.6719ZM29.416 35.2999C29.2419 35.274 27.2631 35.4444 23.5254 33.9798V20.9236C27.2956 19.4455 29.2578 19.6263 29.416 19.6027V35.2999Z" fill="#31688F"/>
<path d="M2.95447 7.99743C3.0325 8.47663 3.44695 8.81735 3.91716 8.81735C3.96931 8.81735 4.02214 8.81315 4.07527 8.80446L18.9766 6.37869C47.2024 10.969 45.9331 10.7785 46.0829 10.7785C46.5531 10.7785 46.9676 10.4379 47.0456 9.95856C47.1322 9.42624 46.771 8.92448 46.2387 8.83776L25.0544 5.38924L46.2386 1.94072C46.7709 1.854 47.1321 1.35234 47.0455 0.819924C46.9589 0.287602 46.4571 -0.0740178 45.9247 0.0128959L18.9765 4.39979L4.07527 1.97402C3.54304 1.88721 3.04119 2.24863 2.95447 2.78105C2.86785 3.31337 3.22908 3.81513 3.7614 3.90175L12.8987 5.38914L3.7614 6.87664C3.22908 6.96336 2.86775 7.46511 2.95447 7.99743Z" fill="#31688F"/>
<path d="M18.6265 10.7784C17.0067 10.7784 15.6888 9.4605 15.6888 7.84067V2.93794C15.6888 1.31812 17.0067 0.000244141 18.6265 0.000244141C20.2463 0.000244141 21.5641 1.31812 21.5641 2.93794V7.84058C21.5642 9.4604 20.2463 10.7784 18.6265 10.7784Z" fill="#FFD600"/>
</g>
<defs>
<clipPath id="clip0_240_13173">
<rect width="50" height="50" fill="white"/>
</clipPath>
</defs>
</svg>
