<svg xmlns="http://www.w3.org/2000/svg">
    <symbol width="50" height="50" viewBox="0 0 50 50" id="carrot_2">
        <g clip-path="url(#clip0_240_13251)">
            <path d="M49.2327 16.8771C47.2156 14.9992 45.0801 13.7239 42.3792 13.3772C44.0433 11.2231 44.9963 8.60423 45.0953 5.84904L45.1329 4.80101L44.085 4.83878C41.3298 4.93784 38.711 5.89091 36.5569 7.55474C36.2103 4.85391 34.9349 2.81601 33.057 0.798902L32.3428 0.0317383L31.6285 0.798902C29.3646 3.23068 28.2152 5.91199 28.2152 9.23487C28.2152 9.89293 28.2658 10.5538 28.3643 11.2051C29.7923 11.3821 31.1809 12.0163 32.2934 13.1287L36.8058 17.6409C37.9181 18.7532 38.5523 20.1418 38.7292 21.5699C39.3809 21.6684 40.0417 21.7189 40.6993 21.7189C44.022 21.7189 46.8008 20.5697 49.2327 18.3057L50 17.5914L49.2327 16.8771Z" fill="#FFD600" />
            <path d="M37.4959 16.9508L32.9835 12.4386C29.6071 9.06236 23.9963 9.52778 21.2277 13.4315L0.906238 42.0844C-0.488826 44.0798 -0.251777 46.7775 1.46973 48.499C3.19016 50.2192 5.89012 50.4613 7.896 49.0545C8.75315 48.4448 35.8308 29.1846 36.5119 28.7C40.399 25.9349 40.8765 20.3316 37.4959 16.9508ZM35.3806 27.1096L29.2846 31.4457L24.2416 26.4027C23.8604 26.0217 23.2427 26.0217 22.8614 26.4027C22.4803 26.7838 22.4803 27.4018 22.8614 27.783L27.6715 32.593L17.9475 39.5097L14.5411 36.1033C14.1601 35.7224 13.5423 35.7222 13.1608 36.1033C12.7798 36.4844 12.7798 37.1023 13.1608 37.4835L16.3344 40.6572L6.7699 47.4604C5.55089 48.3151 3.90238 48.1716 2.84976 47.119C1.79871 46.068 1.65398 44.4211 2.50185 43.2084L5.275 39.2983L7.61767 41.641C7.99896 42.0221 8.61662 42.022 8.9979 41.641C9.379 41.2599 9.379 40.642 8.9979 40.2608L6.42043 37.6833L13.3253 27.9476L17.3182 31.9404C17.6995 32.3215 18.3172 32.3214 18.6985 31.9404C19.0795 31.5593 19.0795 30.9414 18.6985 30.5602L14.4707 26.3326L21.3756 16.5968L27.0186 22.2399C27.3999 22.6211 28.0175 22.6209 28.3987 22.2399C28.7798 21.8588 28.7798 21.2409 28.3987 20.8597L22.5209 14.9818L22.8195 14.5606C24.8863 11.6463 29.0787 11.2945 31.603 13.8188L36.1153 18.331C38.6359 20.8512 38.2913 25.0388 35.3806 27.1096Z" fill="#31688F" />
        </g>
        <defs>
            <clipPath id="clip0_240_13251">
                <rect width="50" height="50" fill="white" />
            </clipPath>
        </defs>
    </symbol>
    <symbol width="24" height="24" viewBox="0 0 24 24" id="dell_fill">
        <path fill-rule="evenodd" clip-rule="evenodd" d="M21 12C21 16.9706 16.9706 21 12 21C7.02944 21 3 16.9706 3 12C3 7.02944 7.02944 3 12 3C16.9706 3 21 7.02944 21 12ZM12 13.4142L8.70711 16.7071L7.29289 15.2929L10.5858 12L7.29289 8.70711L8.70711 7.29289L12 10.5858L15.2929 7.29289L16.7071 8.70711L13.4142 12L16.7071 15.2929L15.2929 16.7071L12 13.4142Z" fill="#414042" />
    </symbol>
    <symbol width="24" height="24" viewBox="0 0 24 24" id="desk_alt_fill">
        <path fill-rule="evenodd" clip-rule="evenodd" d="M10 2C8.34315 2 7 3.34315 7 5V5.00068C5.92115 5.00539 5.32954 5.04261 4.88886 5.33706C4.67048 5.48298 4.48298 5.67048 4.33706 5.88886C4 6.39331 4 7.09554 4 8.5V18C4 19.8856 4 20.8284 4.58579 21.4142C5.17157 22 6.11438 22 8 22H16C17.8856 22 18.8284 22 19.4142 21.4142C20 20.8284 20 19.8856 20 18V8.5C20 7.09554 20 6.39331 19.6629 5.88886C19.517 5.67048 19.3295 5.48298 19.1111 5.33706C18.6705 5.04261 18.0789 5.00539 17 5.00068V5C17 3.34315 15.6569 2 14 2H10ZM10 5C10 4.44772 10.4477 4 11 4H13C13.5523 4 14 4.44772 14 5C14 5.55228 13.5523 6 13 6H11C10.4477 6 10 5.55228 10 5ZM9 11C8.44772 11 8 11.4477 8 12C8 12.5523 8.44772 13 9 13H15C15.5523 13 16 12.5523 16 12C16 11.4477 15.5523 11 15 11H9ZM9 15C8.44772 15 8 15.4477 8 16C8 16.5523 8.44772 17 9 17H13C13.5523 17 14 16.5523 14 16C14 15.4477 13.5523 15 13 15H9Z" fill="#414042" />
    </symbol>
    <symbol width="24" height="24" viewBox="0 0 24 24" id="done">
        <path d="M5 14L9 17L18 6" stroke="#414042" stroke-width="2" />
    </symbol>
    <symbol width="50" height="50" viewBox="0 0 50 50" id="fish">
        <g clip-path="url(#clip0_240_13187)">
            <path d="M23.6989 25C23.6989 19.7185 20.9346 15.0852 16.7793 12.4785C6.53867 13.777 0.976562 25 0.976562 25C0.976562 25 6.53867 36.223 16.7793 37.5215C20.9346 34.9148 23.6989 30.2815 23.6989 25Z" fill="#FFD600" />
            <path d="M47.8622 23.3504C49.2408 21.8469 50 19.893 50 17.8485V16.0477C50 15.5085 49.5627 15.0712 49.0234 15.0712H45.6183C42.3754 15.0712 39.4917 17.0026 38.2119 19.9009C37.3827 19.2486 36.47 18.5643 35.4888 17.878C34.4004 17.1168 33.3282 16.4219 32.2732 15.7934L34.0421 12.8873C34.1946 12.6367 34.2265 12.3307 34.1287 12.0541C34.0309 11.7775 33.8139 11.5596 33.5377 11.4604L32.8731 11.222C28.4842 9.64755 23.7696 9.39579 19.2394 10.4936C18.4656 10.6812 17.6919 10.9106 16.9395 11.1755L15.3953 11.7193C15.3829 11.7237 15.3708 11.7283 15.3587 11.7331C11.6018 12.5288 8.01445 14.6577 4.83574 18.0058C1.76865 21.2364 0.168066 24.4319 0.101465 24.5664C-0.0339844 24.8396 -0.0339844 25.1604 0.101465 25.4337C0.168164 25.5682 1.76865 28.7637 4.83574 31.9942C8.01445 35.3423 11.6018 37.4713 15.3587 38.267C15.3708 38.2718 15.3829 38.2765 15.3953 38.2807L16.9395 38.8247C17.6918 39.0895 18.4655 39.3189 19.2393 39.5064C21.0896 39.955 22.97 40.1781 24.8473 40.1781C27.5659 40.1781 30.2769 39.7095 32.8731 38.778L33.5377 38.5396C33.8139 38.4405 34.0309 38.2225 34.1287 37.946C34.2265 37.6693 34.1947 37.3634 34.0421 37.1128L32.2732 34.2066C33.3282 33.5782 34.4003 32.8833 35.4888 32.1221C36.4701 31.4356 37.3828 30.7514 38.2121 30.0991C39.4924 32.9966 42.3784 34.9289 45.6183 34.9289H49.0234C49.5627 34.9289 50 34.4916 50 33.9523V32.1515C50 30.1071 49.2408 28.1533 47.8622 26.6497C47.2477 25.9794 46.5344 25.4244 45.7534 25C46.5344 24.5757 47.2477 24.0207 47.8622 23.3504ZM31.7484 12.8993L30.5731 14.8304C27.8951 13.393 25.3348 12.4016 22.9069 11.8621C25.8842 11.5955 28.8864 11.9441 31.7484 12.8993ZM31.7484 37.1009C28.8864 38.0559 25.8843 38.4047 22.9069 38.1381C25.3348 37.5985 27.895 36.6072 30.573 35.1698L31.7484 37.1009ZM18.7183 36.667C14.2528 36.667 10.0711 34.6554 6.28926 30.6882C4.04785 28.337 2.61523 25.9532 2.08398 24.9994C2.61064 24.0521 4.02461 21.6971 6.25234 19.3506C10.0433 15.3576 14.2375 13.333 18.7183 13.333C28.1315 13.333 38.3943 22.4085 41.1324 25C38.3943 27.5916 28.1314 36.667 18.7183 36.667ZM48.0469 32.1515V32.9758H45.6183C42.9772 32.9758 40.6459 31.2823 39.8022 28.8061C41.2688 27.5739 42.3324 26.5672 42.8604 26.0516C45.8003 26.5188 48.0469 29.1208 48.0469 32.1515ZM42.8604 23.9484C42.3324 23.4329 41.2687 22.4261 39.8021 21.1937C40.6457 18.7169 42.9748 17.0243 45.6183 17.0243H48.0469V17.8485C48.0469 20.8794 45.8003 23.4812 42.8604 23.9484Z" fill="#31688F" />
            <path d="M14.609 21.1956C14.0698 21.1956 13.6324 21.6329 13.6324 22.1721V23.7222C13.6324 24.2615 14.0698 24.6988 14.609 24.6988C15.1483 24.6988 15.5856 24.2615 15.5856 23.7222V22.1721C15.5856 21.6328 15.1483 21.1956 14.609 21.1956Z" fill="#31688F" />
        </g>
        <defs>
            <clipPath id="clip0_240_13187">
                <rect width="50" height="50" fill="white" />
            </clipPath>
        </defs>
    </symbol>
    <symbol width="50" height="50" viewBox="0 0 50 50" id="peanut">
        <g clip-path="url(#clip0_240_13272)">
            <path d="M17.0629 22.3974C19.9316 20.8705 20.7099 16.7257 18.8012 13.1398C16.8925 9.55385 13.0196 7.88474 10.1509 9.4117C7.28215 10.9387 6.50388 15.0835 8.41258 18.6694C10.3213 22.2553 14.1942 23.9244 17.0629 22.3974Z" fill="#FFD600" />
            <path d="M24.0864 31.2487C24.3762 30.53 24.6163 29.7958 24.8065 29.0521C23.4297 28.6188 21.9739 28.6687 20.7325 29.3288C17.8637 30.8544 17.0833 34.9976 18.9902 38.583C20.3629 41.1635 22.7864 42.7521 25.0881 42.8702C22.8352 39.2376 22.6128 34.9022 24.0864 31.2487Z" fill="#FFD600" />
            <path d="M48.9312 30.7344C47.4144 27.0964 47.4361 22.9679 48.9924 19.1091C50.9777 14.1868 50.0449 8.29632 46.0114 4.18042C39.5527 -2.40998 28.6354 -0.999412 24.0279 6.96035C19.8415 2.54439 13.2089 1.3295 7.73586 4.04772C0.699522 7.54377 -2.04448 16.1219 1.63437 23.041C2.50487 24.6777 3.66625 26.0981 5.08609 27.263C8.13328 29.7625 10.0522 33.418 10.4894 37.5567C11.5095 47.1617 21.7052 52.6718 30.2117 48.6912C35.1412 51.001 41.4113 50.3092 45.785 46.055C50.0355 41.9204 51.0458 35.805 48.9312 30.7344ZM36.0971 48.04C36.0914 48.04 36.0857 48.0402 36.0799 48.0402C35.6688 48.0281 34.3755 46.886 33.2265 41.7676C31.1509 32.5211 31.1503 17.4741 33.2265 8.22523C34.3817 3.07928 35.6828 1.95237 36.0867 1.95237C36.4906 1.95237 37.7917 3.07928 38.947 8.22523C41.0226 17.4718 41.0232 32.5187 38.947 41.7676C37.8013 46.8704 36.5125 48.021 36.0971 48.04ZM33.1809 2.30526C28.5606 10.7554 28.5897 39.259 33.1739 47.675C26.3668 45.9314 22.2233 38.4792 24.9919 31.6141C26.7414 27.2763 26.7601 22.6214 25.0444 18.5068C22.2474 11.7977 26.0763 4.0693 33.1809 2.30526ZM12.4315 37.351C11.94 32.6991 9.77126 28.5803 6.32471 25.7533C5.10523 24.7529 4.10731 23.5318 3.35857 22.1242C0.200462 16.184 2.54666 8.80661 8.6046 5.79663C13.5806 3.32515 19.5902 4.62616 23.1128 8.86803C21.8564 12.1055 21.8279 15.8665 23.2421 19.2584C24.759 22.8964 24.7372 27.025 23.1808 30.8838C21.1957 35.8064 22.1282 41.6963 26.1619 45.8124C26.7548 46.4174 27.3941 46.9611 28.071 47.4418C21.0208 49.7446 13.2483 45.0433 12.4315 37.351ZM38.9923 47.6878C43.6341 39.1921 43.5616 10.6986 38.9993 2.31776C45.8064 4.06129 49.9501 11.5137 47.1812 18.3788C45.4318 22.7164 45.4132 27.3713 47.1288 31.4859C47.7363 32.9428 48.0443 34.4894 48.0443 36.0826C48.0443 41.7948 44.0839 46.4242 38.9923 47.6878Z" fill="#31688F" />
        </g>
        <defs>
            <clipPath id="clip0_240_13272">
                <rect width="50" height="50" fill="white" />
            </clipPath>
        </defs>
    </symbol>
    <symbol width="50" height="50" viewBox="0 0 50 50" id="pinapple">
        <g clip-path="url(#clip0_240_13257)">
            <path fill-rule="evenodd" clip-rule="evenodd" d="M37.6953 36.328V28.5156C37.6953 26.2218 37.0788 24.0652 36.0034 22.203L35.8289 22.3044L34.0087 23.6358L31.0058 21.4392L28.0029 23.6358L25 21.4392L21.9971 23.6358L18.9942 21.4392L15.9912 23.6358L14.1711 22.3044L13.8976 22.3778C12.8834 24.1996 12.3047 26.2933 12.3047 28.5156V36.3281C12.3047 38.205 12.7175 39.99 13.4567 41.5971L13.7596 41.772L15.9912 43.4045L18.9942 41.2079L21.9971 43.4045L25 41.2079L28.0029 43.4045L31.0058 41.2079L34.0087 43.4045L36.2404 41.772L36.5433 41.5971C37.2825 39.99 37.6953 38.2049 37.6953 36.328Z" fill="#FFD600" />
            <path d="M33.0286 17.4556L36.3211 7.24997C36.4437 6.87009 36.3228 6.45398 36.0158 6.1989C35.7087 5.94402 35.2774 5.90154 34.9265 6.09158C33.4041 6.91677 31.6481 8.37253 29.9714 10.1713L30.4316 1.02558C30.4516 0.626952 30.2271 0.256251 29.8645 0.0894545C29.502 -0.0773418 29.0744 -0.00693188 28.7846 0.267676C27.4865 1.49746 26.1327 3.48505 25.0008 5.78601C23.8317 3.40516 22.4717 1.458 21.2153 0.267676C20.9255 -0.00693188 20.4979 -0.0773418 20.1354 0.0894545C19.7728 0.256251 19.5482 0.62705 19.5683 1.02568L20.0285 10.1713C18.3517 8.37263 16.5958 6.91677 15.0733 6.09168C14.7223 5.90154 14.2911 5.94383 13.984 6.1991C13.677 6.45408 13.5561 6.87029 13.6787 7.25017L16.9713 17.4557C10.1804 22.5448 11.4006 28.7942 11.3282 36.3283C11.3281 43.8669 17.4612 50.0001 25 50.0001C32.5385 50.0001 38.6717 43.8669 38.6717 36.3283C38.6 28.7985 39.8173 22.5389 33.0286 17.4556ZM13.2813 29.453L15.4147 31.0136C15.7582 31.2646 16.2244 31.2646 16.5679 31.0136L18.9943 29.2388L21.4206 31.0136C21.7642 31.2646 22.2303 31.2646 22.5738 31.0136L25.0002 29.2388L27.4266 31.0136C27.7701 31.2646 28.2362 31.2646 28.5798 31.0136L31.0061 29.2388L33.4325 31.0136C33.6043 31.1391 33.8066 31.2019 34.009 31.2019C34.2115 31.2019 34.4139 31.1391 34.5856 31.0136L36.719 29.4531V33.6867C36.6906 33.5877 34.1075 35.552 34.009 35.6049L31.5827 33.8301C31.2391 33.579 30.773 33.579 30.4295 33.8301L28.0031 35.6049L25.5768 33.8301C25.2332 33.579 24.7671 33.579 24.4235 33.8301L21.9972 35.6049L19.5708 33.8301C19.2273 33.579 18.7612 33.579 18.4176 33.8301L15.9912 35.6049C15.8839 35.5465 13.3203 33.5939 13.2813 33.6867V29.453ZM33.5695 9.41813L31.3191 16.3938C30.7965 16.1203 30.254 15.8794 29.6945 15.6743L29.8114 13.3522C31.015 11.832 32.32 10.4723 33.5695 9.41813ZM28.3322 3.88309L27.7805 14.8474C27.4774 12.5283 26.8536 10.2563 26.0527 8.18923C26.7197 6.59441 27.51 5.10975 28.3322 3.88309ZM25.8126 14.8677C24.6175 14.7956 23.3796 14.8867 22.2335 15.125L21.6688 3.90477C23.3915 6.4863 25.1978 10.4784 25.8126 14.8677ZM16.4305 9.41803C17.6799 10.4721 18.985 11.832 20.1888 13.352L20.3057 15.6742C19.7462 15.8793 19.2037 16.1202 18.6811 16.3937L16.4305 9.41803ZM25 16.7969C30.992 16.7968 35.9479 21.3173 36.6369 27.1269C36.6422 27.0573 34.0639 28.9864 34.0088 29.0154L31.5824 27.2406C31.2388 26.9895 30.7727 26.9895 30.4292 27.2406L28.0028 29.0154L25.5765 27.2406C25.2329 26.9895 24.7668 26.9895 24.4232 27.2406L21.9969 29.0154L19.5705 27.2406C19.227 26.9895 18.7609 26.9895 18.4173 27.2406L15.991 29.0154C15.9746 29.0151 13.2816 27.0019 13.3628 27.1269C14.052 21.3173 19.008 16.7969 25 16.7969ZM25 48.0468C18.4341 48.056 13.1239 42.6016 13.2813 36.0425L15.4147 37.603C15.7582 37.8542 16.2244 37.8542 16.5679 37.603L18.9943 35.8282L21.4206 37.603C21.7642 37.8542 22.2303 37.8542 22.5738 37.603L25.0002 35.8282L27.4266 37.603C27.7701 37.8542 28.2362 37.8542 28.5798 37.603L31.0061 35.8282L33.4325 37.603C33.6043 37.7286 33.8066 37.7914 34.009 37.7914C34.2115 37.7914 34.4139 37.7286 34.5856 37.603L36.719 36.0425C36.876 42.6017 31.5658 48.056 25 48.0468Z" fill="#31688F" />
        </g>
        <defs>
            <clipPath id="clip0_240_13257">
                <rect width="50" height="50" fill="white" />
            </clipPath>
        </defs>
    </symbol>
    <symbol width="50" height="50" viewBox="0 0 50 50" id="poke_bowl">
        <path d="M27.7588 21.3273C28.1373 21.3273 28.4976 21.1058 28.6566 20.736L36.5117 2.45369C36.7246 1.95818 36.4955 1.38386 36 1.17088C35.5043 0.957985 34.9302 1.18699 34.7172 1.68259L26.862 19.965C26.5842 20.6116 27.0624 21.3273 27.7588 21.3273Z" fill="#31688F" />
        <path d="M24.2812 28.3215H28.6963C28.2351 26.634 28.4188 24.7824 29.3301 23.1564C29.4623 22.9206 29.6192 22.6735 29.7967 22.4193C29.1289 19.8605 26.537 17.2011 26.1808 16.8448L25.4902 16.1543L24.7997 16.8448C24.688 16.9566 22.4124 19.2599 21.5337 22.0732C21.8719 22.8423 24.0515 27.7988 24.2812 28.3215Z" fill="#FFD600" />
        <path d="M4.94336 28.3215H45.0566C45.0566 30.0139 44.8369 31.6565 44.4248 33.2239H5.5752C5.16309 31.6565 4.94336 30.0139 4.94336 28.3215Z" fill="#FFD600" />
        <path d="M24.5098 38.1272C29.2637 38.1272 33.2988 41.2014 34.7344 45.4709C28.4371 48.8959 20.6464 48.7546 14.4541 45.0061V45.0051C16.0205 40.9807 19.9307 38.1272 24.5098 38.1272Z" fill="#FFD600" />
        <path d="M17.5605 27.345C17.3193 25.9095 16.5576 24.6497 15.4756 23.7659L14.8885 22.4206L13.2107 22.6223C13.073 22.5871 12.9344 22.5574 12.793 22.5316L11.7391 21.9019L10.8213 22.517C10.0684 22.6391 9.3623 22.9037 8.7334 23.2846L7.36084 23.1083L7.25195 24.5561C6.59668 25.3393 6.14063 26.2953 5.96484 27.3451C5.91113 27.6625 5.88379 27.9887 5.88379 28.3217H17.6416C17.6416 27.9886 17.6143 27.6624 17.5605 27.345Z" fill="#FFD600" />
        <path d="M49.0234 46.9552H33.9473C41.0293 43.6994 46.0332 36.5988 46.0332 28.3214C46.0332 27.7824 45.5957 27.3449 45.0566 27.3449H43.332C44.5146 23.1212 44.707 17.1652 41.5479 15.3966C39.8662 14.4533 37.458 14.8712 34.7178 16.5646L40.1152 4.0021C40.3281 3.50601 40.0986 2.93179 39.6035 2.7189C39.1074 2.50601 38.5332 2.7355 38.3203 3.23062L31.5449 19.0011C30.2353 20.213 29.1211 21.5324 28.4785 22.6789C27.6992 24.0685 27.3389 25.6896 27.5195 27.3449H24.9189L21.6768 19.9728C21.46 19.4796 20.8838 19.255 20.3906 19.4728L18.6924 20.2189C18.4707 18.4181 17.3955 16.9904 15.8428 16.6388C14.4834 16.3302 13.0566 16.9445 12.0625 18.1789C9.36816 15.9396 6.03418 17.1906 5.77539 20.3752C5.6543 21.8703 6.25195 23.4142 7.25195 24.5558C7.6709 24.0539 8.1709 23.6232 8.7334 23.2843C7.53223 21.9269 7.34961 19.8722 8.41699 19.1994C9.13965 18.7433 10.2539 19.0773 11.1074 19.9523C10.8281 20.7873 10.7314 21.675 10.8213 22.5168C11.1279 22.4669 11.4424 22.4416 11.7627 22.4416C12.1143 22.4416 12.459 22.4728 12.793 22.5314C12.6631 21.7912 12.7627 20.9464 13.1172 20.1671C13.6318 19.0412 14.5967 18.3586 15.4111 18.5431C16.2549 18.7345 16.8145 19.8127 16.7783 21.0607L13.2197 22.6242C14.0576 22.839 14.8252 23.2335 15.4756 23.7658C17.1816 23.0168 19.3711 22.0539 20.2822 21.6535L22.7852 27.3449H4.94336C4.4043 27.3449 3.9668 27.7824 3.9668 28.3214C3.9668 36.4259 8.75293 43.5978 16.0498 46.9552H0.976562C0.4375 46.9552 0 47.3927 0 47.9318C0 48.4718 0.4375 48.9084 0.976562 48.9084H49.0234C49.5625 48.9084 50 48.4718 50 47.9318C50 47.3927 49.5625 46.9552 49.0234 46.9552ZM30.1816 23.6339C31.9033 20.5627 38.0137 15.6535 40.5928 17.0998C42.5625 18.2033 42.5645 23.3371 41.2959 27.3449H39.1455C39.5107 25.6671 38.7422 23.9406 37.2334 23.0939C35.3486 22.0373 32.9561 22.7111 31.8994 24.5968C31.4199 25.4513 31.2881 26.4289 31.4883 27.3449H29.4883C29.2988 26.0421 29.5576 24.7472 30.1816 23.6339ZM37.0977 27.3449H33.5371C33.2715 26.7794 33.2891 26.1125 33.6035 25.5509C34.1328 24.6056 35.333 24.2677 36.2783 24.798C37.1748 25.3009 37.5342 26.4113 37.0977 27.3449ZM5.94629 29.298H44.0537C43.5312 39.1564 35.1797 46.9552 25 46.9552C14.8857 46.9552 6.47363 39.2433 5.94629 29.298Z" fill="#31688F" />
    </symbol>
    <symbol width="24" height="24" viewBox="0 0 24 24" id="property_add_ring_fill">
        <path fill-rule="evenodd" clip-rule="evenodd" d="M21 12C21 16.9706 16.9706 21 12 21C7.02944 21 3 16.9706 3 12C3 7.02944 7.02944 3 12 3C16.9706 3 21 7.02944 21 12ZM13 13V17H11V13H7V11H11V7H13V11H17V13H13Z" fill="#414042" />
    </symbol>
    <symbol width="24" height="24" viewBox="0 0 24 24" id="property_add">
        <path d="M12 6L12 18" stroke="#414042" stroke-width="2" stroke-linecap="round" stroke-linejoin="round" />
        <path d="M18 12L6 12" stroke="#414042" stroke-width="2" stroke-linecap="round" stroke-linejoin="round" />
    </symbol>
    <symbol width="50" height="50" viewBox="0 0 50 50" id="property_bag_alt_fill">
        <path d="M8 12L8 8C8 5.79086 9.79086 4 12 4V4C14.2091 4 16 5.79086 16 8L16 12" stroke="#414042" stroke-width="2" stroke-linecap="round" />
        <path d="M3.69435 12.6678C3.83942 10.9269 3.91196 10.0565 4.48605 9.52824C5.06013 9 5.9336 9 7.68053 9H16.3195C18.0664 9 18.9399 9 19.514 9.52824C20.088 10.0565 20.1606 10.9269 20.3057 12.6678L20.8195 18.8339C20.904 19.8474 20.9462 20.3542 20.6491 20.6771C20.352 21 19.8435 21 18.8264 21H5.1736C4.15655 21 3.64802 21 3.35092 20.6771C3.05382 20.3542 3.09605 19.8474 3.18051 18.8339L3.69435 12.6678Z" fill="#414042" />
    </symbol>
    <symbol width="24" height="24" viewBox="0 0 24 24" id="property_bag_alt">
        <path d="M8 12L8 8C8 5.79086 9.79086 4 12 4V4C14.2091 4 16 5.79086 16 8L16 12" stroke="#414042" stroke-width="2" stroke-linecap="round" />
        <path d="M3.35092 20.6771L4.0868 20L3.35092 20.6771ZM20.8195 18.8339L19.8229 18.917L20.8195 18.8339ZM20.6491 20.6771L21.385 21.3542L20.6491 20.6771ZM19.514 9.52824L20.1911 8.79235L19.514 9.52824ZM4.48605 9.52824L3.80894 8.79235L4.48605 9.52824ZM7.68053 10H16.3195V8H7.68053V10ZM19.3091 12.7509L19.8229 18.917L21.816 18.7509L21.3022 12.5848L19.3091 12.7509ZM18.8264 20H5.1736V22H18.8264V20ZM4.17705 18.917L4.69089 12.7509L2.6978 12.5848L2.18396 18.7509L4.17705 18.917ZM5.1736 20C4.63561 20 4.33626 19.9977 4.12947 19.9691C3.95125 19.9444 4.01359 19.9204 4.0868 20L2.61503 21.3542C2.98535 21.7567 3.4505 21.8941 3.85508 21.9502C4.23109 22.0023 4.69454 22 5.1736 22V20ZM2.18396 18.7509C2.14418 19.2283 2.10344 19.6899 2.12411 20.069C2.14636 20.4768 2.24472 20.9518 2.61503 21.3542L4.0868 20C4.16001 20.0796 4.13094 20.1397 4.12114 19.96C4.10977 19.7516 4.13238 19.4531 4.17705 18.917L2.18396 18.7509ZM19.8229 18.917C19.8676 19.4531 19.8902 19.7516 19.8789 19.96C19.8691 20.1397 19.84 20.0796 19.9132 20L21.385 21.3542C21.7553 20.9518 21.8536 20.4768 21.8759 20.069C21.8966 19.6899 21.8558 19.2283 21.816 18.7509L19.8229 18.917ZM18.8264 22C19.3055 22 19.7689 22.0023 20.1449 21.9502C20.5495 21.8941 21.0147 21.7567 21.385 21.3542L19.9132 20C19.9864 19.9204 20.0487 19.9444 19.8705 19.9691C19.6637 19.9977 19.3644 20 18.8264 20V22ZM16.3195 10C17.2199 10 17.7986 10.002 18.2278 10.0577C18.6285 10.1097 18.7607 10.194 18.8368 10.2641L20.1911 8.79235C19.6931 8.3342 19.1015 8.15438 18.4853 8.07436C17.8975 7.99803 17.1659 8 16.3195 8V10ZM21.3022 12.5848C21.2319 11.7412 21.1731 11.012 21.0482 10.4326C20.9173 9.82513 20.689 9.25051 20.1911 8.79235L18.8368 10.2641C18.913 10.3342 19.008 10.4589 19.0931 10.854C19.1843 11.277 19.2343 11.8535 19.3091 12.7509L21.3022 12.5848ZM7.68053 8C6.83406 8 6.10251 7.99803 5.5147 8.07436C4.89846 8.15438 4.30686 8.3342 3.80894 8.79235L5.16316 10.2641C5.23932 10.194 5.3715 10.1097 5.77224 10.0577C6.20142 10.002 6.78007 10 7.68053 10V8ZM4.69089 12.7509C4.76567 11.8535 4.81569 11.277 4.90687 10.854C4.99201 10.4589 5.08699 10.3342 5.16316 10.2641L3.80894 8.79235C3.31102 9.25051 3.08268 9.82513 2.95176 10.4326C2.82688 11.012 2.7681 11.7412 2.6978 12.5848L4.69089 12.7509Z" fill="#414042" />
    </symbol>
    <symbol width="24" height="24" viewBox="0 0 24 24" id="property_close_round">
        <path d="M18 6L6 18" stroke="#414042" stroke-width="2" stroke-linecap="round" stroke-linejoin="round" />
        <path d="M6 6L18 18" stroke="#414042" stroke-width="2" stroke-linecap="round" stroke-linejoin="round" />
    </symbol>
    <symbol width="24" height="24" viewBox="0 0 24 24" id="property_expand_down">
        <path d="M12 15L12.7071 15.7071L12 16.4142L11.2929 15.7071L12 15ZM18.7071 9.70711L12.7071 15.7071L11.2929 14.2929L17.2929 8.29289L18.7071 9.70711ZM11.2929 15.7071L5.29289 9.70711L6.70711 8.29289L12.7071 14.2929L11.2929 15.7071Z" fill="#414042" />
    </symbol>
    <symbol width="24" height="24" viewBox="0 0 24 24" id="property_expand_left">
        <path d="M9 12L8.29289 11.2929L7.58579 12L8.29289 12.7071L9 12ZM14.2929 5.29289L8.29289 11.2929L9.70711 12.7071L15.7071 6.70711L14.2929 5.29289ZM8.29289 12.7071L14.2929 18.7071L15.7071 17.2929L9.70711 11.2929L8.29289 12.7071Z" fill="#414042" />
    </symbol>
    <symbol width="24" height="24" viewBox="0 0 24 24" id="property_expand_up">
        <path d="M12 9L12.7071 8.29289L12 7.58579L11.2929 8.29289L12 9ZM18.7071 14.2929L12.7071 8.29289L11.2929 9.70711L17.2929 15.7071L18.7071 14.2929ZM11.2929 8.29289L5.29289 14.2929L6.70711 15.7071L12.7071 9.70711L11.2929 8.29289Z" fill="#414042" />
    </symbol>
    <symbol width="24" height="24" viewBox="0 0 24 24" id="property_menu">
        <path d="M5 7H19" stroke="#414042" stroke-width="2" stroke-linecap="round" />
        <path d="M5 12H19" stroke="#414042" stroke-width="2" stroke-linecap="round" />
        <path d="M5 17H19" stroke="#414042" stroke-width="2" stroke-linecap="round" />
    </symbol>
    <symbol width="24" height="24" viewBox="0 0 24 24" id="property_minus">
        <path d="M18 12L6 12" stroke="#414042" stroke-width="2" stroke-linecap="round" stroke-linejoin="round" />
    </symbol>
    <symbol width="24" height="24" viewBox="0 0 24 24" id="property_remove_fill">
        <path fill-rule="evenodd" clip-rule="evenodd" d="M12 21C16.9706 21 21 16.9706 21 12C21 7.02944 16.9706 3 12 3C7.02944 3 3 7.02944 3 12C3 16.9706 7.02944 21 12 21ZM7 13H17V11H7V13Z" fill="#414042" />
    </symbol>
    <symbol width="24" height="24" viewBox="0 0 24 24" id="property_xpand_right">
        <path d="M15 12L15.7071 11.2929L16.4142 12L15.7071 12.7071L15 12ZM9.70711 5.29289L15.7071 11.2929L14.2929 12.7071L8.29289 6.70711L9.70711 5.29289ZM15.7071 12.7071L9.70711 18.7071L8.29289 17.2929L14.2929 11.2929L15.7071 12.7071Z" fill="#414042" />
    </symbol>
    <symbol width="24" height="24" viewBox="0 0 24 24" id="question_fill">
        <path fill-rule="evenodd" clip-rule="evenodd" d="M21 12C21 16.9706 16.9706 21 12 21C7.02944 21 3 16.9706 3 12C3 7.02944 7.02944 3 12 3C16.9706 3 21 7.02944 21 12ZM13 18C13 18.5523 12.5523 19 12 19C11.4477 19 11 18.5523 11 18C11 17.4477 11.4477 17 12 17C12.5523 17 13 17.4477 13 18ZM12 5C9.79086 5 8 6.79086 8 9H10C10 7.89543 10.8954 7 12 7H12.0943C13.1468 7 14 7.85321 14 8.90569V9.41886C14 9.93267 13.6712 10.3888 13.1838 10.5513C11.8796 10.986 11 12.2065 11 13.5811V16H13V13.5811C13 13.0673 13.3288 12.6112 13.8162 12.4487C15.1204 12.014 16 10.7935 16 9.41886V8.90569C16 6.74864 14.2514 5 12.0943 5H12Z" fill="#414042" />
    </symbol>
    <symbol width="50" height="50" viewBox="0 0 50 50" id="sashimi">
        <g clip-path="url(#clip0_240_13173)">
            <path d="M11.8411 26.7922L3.92224 19.6973V35.1633L11.8411 28.0683C11.3565 27.6698 11.0897 27.4303 11.0897 27.4303C11.0897 27.4303 11.3565 27.1906 11.8411 26.7922Z" fill="#FFD600" />
            <path d="M30.3926 18.6263V36.2338C29.0557 36.2898 28.0115 36.2476 26.4707 35.9008V18.9594C28.0192 18.6108 29.066 18.5707 30.3926 18.6263Z" fill="#FFD600" />
            <path d="M10.3816 39.5544L11.0721 38.8639C12.9866 36.9495 16.0853 36.9492 18 38.8639C19.9143 40.7782 19.9147 43.8771 17.9999 45.7918L17.3093 46.4822L10.3816 39.5544Z" fill="#FFD600" />
            <path d="M38.8639 45.792C37.9386 44.8667 37.429 43.6365 37.429 42.3279C37.429 39.6207 39.62 37.4292 42.3278 37.4292C43.6363 37.4292 44.8664 37.9388 45.7917 38.864L46.4823 39.5545L39.5544 46.4823L38.8639 45.792Z" fill="#FFD600" />
            <path d="M46.9642 13.7278H3.03582C1.3619 13.7278 9.15527e-05 15.0896 9.15527e-05 16.7635V46.9643C9.15527e-05 48.6382 1.3619 50 3.03582 50H46.9642C48.6381 50 49.9999 48.6382 49.9999 46.9643V16.7635C49.9999 15.0896 48.6381 13.7278 46.9642 13.7278ZM1.95321 46.9642V42.5213C3.49393 41.2553 5.78073 41.3413 7.21959 42.7803C8.65846 44.2192 8.74459 46.506 7.47858 48.0468H3.03582C2.43885 48.0468 1.95321 47.5612 1.95321 46.9642ZM24.6288 48.0468C25.0641 46.3528 26.6041 45.0972 28.4319 45.0972C30.2597 45.0972 31.7998 46.3528 32.235 48.0468H24.6288ZM48.0468 46.9642C48.0468 47.5611 47.5611 48.0468 46.9642 48.0468H34.2286C33.7619 45.2684 31.341 43.1441 28.432 43.1441C25.5229 43.1441 23.1021 45.2684 22.6354 48.0468H9.76929C10.7846 45.8696 10.3953 43.194 8.60064 41.3993C6.80602 39.6047 4.13045 39.2155 1.95321 40.2307V16.7635C1.95321 16.1665 2.43885 15.6809 3.03582 15.6809H46.9642C47.5611 15.6809 48.0468 16.1665 48.0468 16.7635V46.9642Z" fill="#31688F" />
            <path d="M18.152 21.3335C13.7002 23.8088 10.5679 26.6074 10.4369 26.7253C10.0059 27.1128 10.0052 27.7894 10.4369 28.1776C10.568 28.2956 13.7002 31.0943 18.152 33.5697C18.8002 33.93 19.6031 33.4611 19.6031 32.7162V22.1871C19.6031 21.4437 18.8022 20.9716 18.152 21.3335ZM17.65 31.0161C15.3996 29.642 13.6022 28.2622 12.6047 27.4512C13.601 26.6409 15.3963 25.2626 17.65 23.887V31.0161Z" fill="#31688F" />
            <path d="M34.5111 18.1715C33.9067 18.0478 33.3386 18.5098 33.3386 19.1282V35.7751C33.3386 36.3931 33.9053 36.8553 34.5111 36.7318C39.5186 35.7063 46.0778 32.5571 46.0778 27.4517C46.0778 22.3471 39.5207 19.1972 34.5111 18.1715ZM35.2917 34.547V20.3562C40.4753 21.6979 44.1247 24.582 44.1247 27.4516C44.1247 30.321 40.4752 33.2052 35.2917 34.547Z" fill="#31688F" />
            <path d="M38.2369 24.5137C37.704 24.5137 37.2607 24.9474 37.2607 25.4898C37.2607 26.0351 37.7054 26.467 38.2369 26.467C38.7743 26.467 39.2139 26.03 39.2139 25.4898C39.2138 24.9556 38.7788 24.5137 38.2369 24.5137Z" fill="#31688F" />
            <path d="M30.4337 17.6719C28.173 17.5768 25.8284 17.8367 22.1723 19.3646C21.8089 19.5165 21.5723 19.8718 21.5723 20.2657V34.6379C21.5723 35.0317 21.8089 35.3871 22.1723 35.539C25.847 37.0746 28.1944 37.3242 30.4334 37.2307C30.9564 37.2089 31.3691 36.7785 31.3691 36.2551V18.6476C31.3691 18.1242 30.9565 17.6939 30.4337 17.6719ZM29.416 35.2999C29.2419 35.274 27.2631 35.4444 23.5254 33.9798V20.9236C27.2956 19.4455 29.2578 19.6263 29.416 19.6027V35.2999Z" fill="#31688F" />
            <path d="M2.95447 7.99743C3.0325 8.47663 3.44695 8.81735 3.91716 8.81735C3.96931 8.81735 4.02214 8.81315 4.07527 8.80446L18.9766 6.37869C47.2024 10.969 45.9331 10.7785 46.0829 10.7785C46.5531 10.7785 46.9676 10.4379 47.0456 9.95856C47.1322 9.42624 46.771 8.92448 46.2387 8.83776L25.0544 5.38924L46.2386 1.94072C46.7709 1.854 47.1321 1.35234 47.0455 0.819924C46.9589 0.287602 46.4571 -0.0740178 45.9247 0.0128959L18.9765 4.39979L4.07527 1.97402C3.54304 1.88721 3.04119 2.24863 2.95447 2.78105C2.86785 3.31337 3.22908 3.81513 3.7614 3.90175L12.8987 5.38914L3.7614 6.87664C3.22908 6.96336 2.86775 7.46511 2.95447 7.99743Z" fill="#31688F" />
            <path d="M18.6265 10.7784C17.0067 10.7784 15.6888 9.4605 15.6888 7.84067V2.93794C15.6888 1.31812 17.0067 0.000244141 18.6265 0.000244141C20.2463 0.000244141 21.5641 1.31812 21.5641 2.93794V7.84058C21.5642 9.4604 20.2463 10.7784 18.6265 10.7784Z" fill="#FFD600" />
        </g>
        <defs>
            <clipPath id="clip0_240_13173">
                <rect width="50" height="50" fill="white" />
            </clipPath>
        </defs>
    </symbol>
    <symbol width="50" height="50" viewBox="0 0 50 50" id="sauces">
        <g clip-path="url(#clip0_240_13262)">
            <path d="M18.2617 18.7156V40.112H9.58965V18.7156H18.2617Z" fill="#FFD600" />
            <path d="M22.5586 13.4422H22.3858V11.4802C22.3858 10.4496 21.5475 9.61115 20.5168 9.61115H18.8529C18.2951 8.89298 17.7264 7.95275 17.123 6.75255C16.1902 4.89728 15.4328 2.87277 14.8719 0.735074C14.8714 0.733023 14.8691 0.724918 14.8687 0.722867C14.7535 0.295425 14.3655 -0.00184023 13.9218 0.0032379C13.479 0.00470274 13.0918 0.306754 12.9795 0.735074C12.4185 2.87277 11.6611 4.89738 10.7284 6.75255C10.1249 7.95285 9.55606 8.89318 8.99834 9.61115H7.33448C6.30391 9.61115 5.46543 10.4495 5.46543 11.4802V13.4422H5.29268C4.75332 13.4422 4.31612 13.8794 4.31612 14.4188V49.0236C4.31612 49.563 4.75332 50.0002 5.29268 50.0002H22.5586C23.098 50.0002 23.5352 49.563 23.5352 49.0236V14.4188C23.5352 13.8794 23.098 13.4422 22.5586 13.4422ZM12.4734 7.6299C13.0143 6.55421 13.4994 5.42619 13.9257 4.25461C14.3517 5.4255 14.837 6.55382 15.378 7.6299C15.7518 8.37316 16.1177 9.03107 16.4808 9.61125H11.3708C11.7337 9.03117 12.0996 8.37316 12.4734 7.6299ZM7.41866 11.5644H20.4327V13.4422H7.41866V11.5644ZM21.582 48.0471H6.26934V15.3953H21.582V48.0471Z" fill="#31688F" />
            <path d="M18.2617 43.4177H9.58965C9.05029 43.4177 8.61308 43.8549 8.61308 44.3943C8.61308 44.9336 9.05029 45.3708 9.58965 45.3708H18.2617C18.8011 45.3708 19.2383 44.9336 19.2383 44.3943C19.2383 43.8549 18.801 43.4177 18.2617 43.4177Z" fill="#31688F" />
            <path d="M44.7072 13.4421H44.5345V11.4801C44.5345 10.4495 43.6961 9.61104 42.6654 9.61104H41.0016C40.4438 8.89297 39.875 7.95273 39.2716 6.75244C38.3389 4.89717 37.5814 2.87266 37.0191 0.729492C36.9071 0.301074 36.5207 0.0015625 36.0778 0H36.0742C35.6328 0 35.2461 0.296191 35.1312 0.722656C35.1308 0.724707 35.1285 0.732813 35.128 0.734863C34.567 2.87256 33.8097 4.89717 32.877 6.75234C32.2735 7.95254 31.7048 8.89287 31.147 9.61094H29.4831C28.4525 9.61094 27.6141 10.4493 27.6141 11.48V13.442H27.4414C26.9021 13.442 26.4648 13.8792 26.4648 14.4186V49.0235C26.4648 49.5629 26.9021 50.0001 27.4414 50.0001H44.7072C45.2466 50.0001 45.6838 49.5629 45.6838 49.0235V14.4187C45.6838 13.8793 45.2466 13.4421 44.7072 13.4421ZM34.6221 7.62979C35.1631 6.55371 35.6483 5.42549 36.0744 4.25459C36.5004 5.42549 36.9857 6.55361 37.5268 7.62979C37.9005 8.37305 38.2664 9.03096 38.6295 9.61104H33.5195C33.8824 9.03096 34.2483 8.37305 34.6221 7.62979ZM29.5673 11.5643H42.5813V13.4421H29.5673V11.5643ZM43.7307 48.047H28.418V15.3952H43.7307V48.047Z" fill="#31688F" />
            <path d="M40.4104 17.739H31.7383C31.1989 17.739 30.7617 18.1762 30.7617 18.7156V40.112C30.7617 40.6513 31.1989 41.0885 31.7383 41.0885H40.4104C40.9497 41.0885 41.3869 40.6513 41.3869 40.112V18.7156C41.3869 18.1762 40.9497 17.739 40.4104 17.739ZM39.4338 39.1354H32.7148V19.6921H39.4338V39.1354Z" fill="#31688F" />
            <path d="M40.4104 43.4177H31.7383C31.1989 43.4177 30.7617 43.8549 30.7617 44.3943C30.7617 44.9336 31.1989 45.3708 31.7383 45.3708H40.4104C40.9497 45.3708 41.3869 44.9336 41.3869 44.3943C41.3869 43.8549 40.9497 43.4177 40.4104 43.4177Z" fill="#31688F" />
        </g>
        <defs>
            <clipPath id="clip0_240_13262">
                <rect width="50" height="50" fill="white" />
            </clipPath>
        </defs>
    </symbol>
    <symbol width="24" height="24" viewBox="0 0 24 24" id="trash">
        <path fill-rule="evenodd" clip-rule="evenodd" d="M21.0001 6H3.00006V9C4.10463 9 5.00006 9.89543 5.00006 11V15C5.00006 17.8284 5.00006 19.2426 5.87874 20.1213C6.75742 21 8.17163 21 11.0001 21H13.0001C15.8285 21 17.2427 21 18.1214 20.1213C19.0001 19.2426 19.0001 17.8284 19.0001 15V11C19.0001 9.89543 19.8955 9 21.0001 9V6ZM10.5001 11C10.5001 10.4477 10.0523 10 9.50006 10C8.94778 10 8.50006 10.4477 8.50006 11V16C8.50006 16.5523 8.94778 17 9.50006 17C10.0523 17 10.5001 16.5523 10.5001 16V11ZM15.5001 11C15.5001 10.4477 15.0523 10 14.5001 10C13.9478 10 13.5001 10.4477 13.5001 11V16C13.5001 16.5523 13.9478 17 14.5001 17C15.0523 17 15.5001 16.5523 15.5001 16V11Z" fill="#414042" />
        <path d="M10.0681 3.37059C10.1821 3.26427 10.4332 3.17033 10.7825 3.10332C11.1318 3.03632 11.5597 3 12 3C12.4403 3 12.8682 3.03632 13.2175 3.10332C13.5668 3.17033 13.8179 3.26427 13.9319 3.37059" stroke="#414042" stroke-width="2" stroke-linecap="round" />
    </symbol>
    <symbol width="24" height="24" viewBox="0 0 24 24" id="user_fill">
        <path d="M19.6515 20.4054C20.2044 20.2902 20.5336 19.7117 20.2589 19.2183C19.6533 18.1307 18.6993 17.1749 17.4789 16.4465C15.9071 15.5085 13.9812 15 12 15C10.0188 15 8.09295 15.5085 6.52115 16.4465C5.30072 17.1749 4.34669 18.1307 3.74111 19.2183C3.46641 19.7117 3.79565 20.2902 4.34846 20.4054C9.39527 21.4572 14.6047 21.4572 19.6515 20.4054Z" fill="#414042" />
        <circle cx="12" cy="8" r="5" fill="#414042" />
    </symbol>
    <symbol width="13" height="13" viewBox="0 0 13 13" id="ok">
        <path d="M1.16667 7.66667L4.5 10.1667L12 1" stroke="white" stroke-width="2" />
    </symbol>
    <symbol width="13" height="13" viewBox="0 0 13 13" id="ok_gray">
        <path d="M1.16667 7.66667L4.5 10.1667L12 1" stroke="#CCD2E3" stroke-width="2" />
    </symbol>
</svg>